<svg width="675" height="257" viewBox="0 0 675 257" fill="none" xmlns="http://www.w3.org/2000/svg">
<path d="M63.25 194.45C52.0567 194.45 42.7033 192.227 35.19 187.78C27.6767 183.18 22.0033 176.893 18.17 168.92C14.3367 160.947 12.42 151.67 12.42 141.09V56.68C12.42 45.7933 14.1833 36.2867 17.71 28.16C21.39 19.88 26.9867 13.44 34.5 8.83999C42.0133 4.23999 51.5967 1.93999 63.25 1.93999C74.9033 1.93999 84.41 4.23999 91.77 8.83999C99.2833 13.44 104.803 19.88 108.33 28.16C112.01 36.2867 113.85 45.7933 113.85 56.68V141.09C113.85 151.517 111.933 160.793 108.1 168.92C104.267 176.893 98.5933 183.18 91.08 187.78C83.5667 192.227 74.29 194.45 63.25 194.45ZM63.25 160.18C66.93 160.18 69.5367 159.03 71.07 156.73C72.7567 154.277 73.7533 151.517 74.06 148.45C74.52 145.23 74.75 142.47 74.75 140.17V57.6C74.75 54.9933 74.5967 52.08 74.29 48.86C73.9833 45.4867 72.9867 42.5733 71.3 40.12C69.7667 37.5133 67.0833 36.21 63.25 36.21C59.4167 36.21 56.6567 37.5133 54.97 40.12C53.4367 42.5733 52.5167 45.4867 52.21 48.86C51.9033 52.08 51.75 54.9933 51.75 57.6V140.17C51.75 142.47 51.98 145.23 52.44 148.45C52.9 151.517 53.8967 154.277 55.43 156.73C57.1167 159.03 59.7233 160.18 63.25 160.18ZM126.685 191V163.86L171.305 95.32C174.678 90.26 177.822 85.3533 180.735 80.6C183.802 75.8467 186.255 71.0167 188.095 66.11C190.088 61.2033 191.085 56.0667 191.085 50.7C191.085 45.3333 190.012 41.3467 187.865 38.74C185.718 36.1333 182.805 34.83 179.125 34.83C174.985 34.83 171.765 35.98 169.465 38.28C167.165 40.58 165.555 43.6467 164.635 47.48C163.868 51.3133 163.485 55.6067 163.485 60.36V69.56H126.225V59.67C126.225 48.63 127.988 38.8167 131.515 30.23C135.042 21.49 140.638 14.6667 148.305 9.75999C155.972 4.69999 166.015 2.16999 178.435 2.16999C195.148 2.16999 207.722 6.53999 216.155 15.28C224.742 23.8667 229.035 35.9033 229.035 51.39C229.035 58.9033 227.808 65.88 225.355 72.32C223.055 78.76 219.912 85.0467 215.925 91.18C212.092 97.16 207.952 103.447 203.505 110.04L169.465 160.87H223.975V191H126.685Z" fill="white"/>
<path d="M276.668 56H279.244L266.778 23.8H264.202L251.69 56H254.266L257.394 47.812H273.54L276.668 56ZM258.314 45.512L265.49 26.79L272.666 45.512H258.314ZM295.269 56.506C302.353 56.506 307.091 52.044 307.091 45.236V23.8H304.653V45.236C304.653 50.48 301.387 54.16 295.269 54.16C289.197 54.16 285.931 50.48 285.931 45.236V23.8H283.493V45.236C283.493 52.044 288.185 56.506 295.269 56.506ZM335.335 23.8H312.611V26.1H322.731V56H325.215V26.1H335.335V23.8ZM354.241 56.506C363.533 56.506 370.847 49.1 370.847 39.9C370.847 30.7 363.533 23.294 354.241 23.294C344.949 23.294 337.635 30.7 337.635 39.9C337.635 49.1 344.949 56.506 354.241 56.506ZM354.241 54.16C346.283 54.16 340.073 47.812 340.073 39.9C340.073 31.988 346.283 25.64 354.241 25.64C362.199 25.64 368.409 31.988 368.409 39.9C368.409 47.812 362.199 54.16 354.241 54.16ZM407.068 23.8H403.986L392.486 42.844L380.986 23.8H377.95V56H380.388V27.388L392.302 47.168H392.716L404.63 27.388V56H407.068V23.8ZM437.641 56H440.217L427.751 23.8H425.175L412.663 56H415.239L418.367 47.812H434.513L437.641 56ZM419.287 45.512L426.463 26.79L433.639 45.512H419.287ZM463.314 23.8H440.59V26.1H450.71V56H453.194V26.1H463.314V23.8ZM471.734 53.7V40.912H486.454V38.612H471.734V26.1H487.604V23.8H469.296V56H487.834V53.7H471.734ZM527.707 23.8H504.983V26.1H515.103V56H517.587V26.1H527.707V23.8ZM554.02 56H556.826L548.822 42.476C552.916 41.372 555.906 37.692 555.906 33.322C555.906 28.078 551.628 23.8 546.384 23.8H533.688V56H536.126V42.798H546.292L554.02 56ZM536.126 26.1H546.384C550.294 26.1 553.468 29.32 553.468 33.322C553.468 37.278 550.294 40.498 546.384 40.498H536.126V26.1ZM584.485 56H587.061L574.595 23.8H572.019L559.507 56H562.083L565.211 47.812H581.357L584.485 56ZM566.131 45.512L573.307 26.79L580.483 45.512H566.131ZM604.767 23.8H592.669V56H604.767C613.645 56 619.947 48.778 619.947 39.9C619.947 31.022 613.645 23.8 604.767 23.8ZM604.767 53.7H595.107V26.1H604.767C612.357 26.1 617.555 32.264 617.555 39.9C617.555 47.536 612.357 53.7 604.767 53.7ZM629.449 53.7V40.912H644.169V38.612H629.449V26.1H645.319V23.8H627.011V56H645.549V53.7H629.449ZM662.302 56.506C668.696 56.506 672.882 53.01 672.882 47.674C672.882 42.108 667.914 40.314 662.21 38.428C657.61 36.91 654.344 35.714 654.344 31.85C654.344 28.262 657.15 25.64 661.612 25.64C666.212 25.64 668.696 28.308 669.892 31.206L671.962 30.056C670.398 26.33 666.902 23.294 661.612 23.294C656.138 23.294 651.86 26.652 651.86 31.942C651.86 37.554 656.69 39.072 662.072 40.82C666.994 42.384 670.398 43.856 670.398 47.72C670.398 51.4 667.684 54.16 662.302 54.16C657.012 54.16 653.746 51.538 652.642 47.674L650.526 48.916C651.998 53.47 656.276 56.506 662.302 56.506Z" fill="white" fill-opacity="0.1"/>
<path d="M276.668 122H279.244L266.778 89.8H264.202L251.69 122H254.266L257.394 113.812H273.54L276.668 122ZM258.314 111.512L265.49 92.79L272.666 111.512H258.314ZM295.269 122.506C302.353 122.506 307.091 118.044 307.091 111.236V89.8H304.653V111.236C304.653 116.48 301.387 120.16 295.269 120.16C289.197 120.16 285.931 116.48 285.931 111.236V89.8H283.493V111.236C283.493 118.044 288.185 122.506 295.269 122.506ZM335.335 89.8H312.611V92.1H322.731V122H325.215V92.1H335.335V89.8ZM354.241 122.506C363.533 122.506 370.847 115.1 370.847 105.9C370.847 96.7 363.533 89.294 354.241 89.294C344.949 89.294 337.635 96.7 337.635 105.9C337.635 115.1 344.949 122.506 354.241 122.506ZM354.241 120.16C346.283 120.16 340.073 113.812 340.073 105.9C340.073 97.988 346.283 91.64 354.241 91.64C362.199 91.64 368.409 97.988 368.409 105.9C368.409 113.812 362.199 120.16 354.241 120.16ZM407.068 89.8H403.986L392.486 108.844L380.986 89.8H377.95V122H380.388V93.388L392.302 113.168H392.716L404.63 93.388V122H407.068V89.8ZM437.641 122H440.217L427.751 89.8H425.175L412.663 122H415.239L418.367 113.812H434.513L437.641 122ZM419.287 111.512L426.463 92.79L433.639 111.512H419.287ZM463.314 89.8H440.59V92.1H450.71V122H453.194V92.1H463.314V89.8ZM471.734 119.7V106.912H486.454V104.612H471.734V92.1H487.604V89.8H469.296V122H487.834V119.7H471.734ZM527.707 89.8H504.983V92.1H515.103V122H517.587V92.1H527.707V89.8ZM554.02 122H556.826L548.822 108.476C552.916 107.372 555.906 103.692 555.906 99.322C555.906 94.078 551.628 89.8 546.384 89.8H533.688V122H536.126V108.798H546.292L554.02 122ZM536.126 92.1H546.384C550.294 92.1 553.468 95.32 553.468 99.322C553.468 103.278 550.294 106.498 546.384 106.498H536.126V92.1ZM584.485 122H587.061L574.595 89.8H572.019L559.507 122H562.083L565.211 113.812H581.357L584.485 122ZM566.131 111.512L573.307 92.79L580.483 111.512H566.131ZM604.767 89.8H592.669V122H604.767C613.645 122 619.947 114.778 619.947 105.9C619.947 97.022 613.645 89.8 604.767 89.8ZM604.767 119.7H595.107V92.1H604.767C612.357 92.1 617.555 98.264 617.555 105.9C617.555 113.536 612.357 119.7 604.767 119.7ZM629.449 119.7V106.912H644.169V104.612H629.449V92.1H645.319V89.8H627.011V122H645.549V119.7H629.449ZM662.302 122.506C668.696 122.506 672.882 119.01 672.882 113.674C672.882 108.108 667.914 106.314 662.21 104.428C657.61 102.91 654.344 101.714 654.344 97.85C654.344 94.262 657.15 91.64 661.612 91.64C666.212 91.64 668.696 94.308 669.892 97.206L671.962 96.056C670.398 92.33 666.902 89.294 661.612 89.294C656.138 89.294 651.86 92.652 651.86 97.942C651.86 103.554 656.69 105.072 662.072 106.82C666.994 108.384 670.398 109.856 670.398 113.72C670.398 117.4 667.684 120.16 662.302 120.16C657.012 120.16 653.746 117.538 652.642 113.674L650.526 114.916C651.998 119.47 656.276 122.506 662.302 122.506Z" fill="white" fill-opacity="0.6"/>
<path d="M276.668 188H279.244L266.778 155.8H264.202L251.69 188H254.266L257.394 179.812H273.54L276.668 188ZM258.314 177.512L265.49 158.79L272.666 177.512H258.314ZM295.269 188.506C302.353 188.506 307.091 184.044 307.091 177.236V155.8H304.653V177.236C304.653 182.48 301.387 186.16 295.269 186.16C289.197 186.16 285.931 182.48 285.931 177.236V155.8H283.493V177.236C283.493 184.044 288.185 188.506 295.269 188.506ZM335.335 155.8H312.611V158.1H322.731V188H325.215V158.1H335.335V155.8ZM354.241 188.506C363.533 188.506 370.847 181.1 370.847 171.9C370.847 162.7 363.533 155.294 354.241 155.294C344.949 155.294 337.635 162.7 337.635 171.9C337.635 181.1 344.949 188.506 354.241 188.506ZM354.241 186.16C346.283 186.16 340.073 179.812 340.073 171.9C340.073 163.988 346.283 157.64 354.241 157.64C362.199 157.64 368.409 163.988 368.409 171.9C368.409 179.812 362.199 186.16 354.241 186.16ZM407.068 155.8H403.986L392.486 174.844L380.986 155.8H377.95V188H380.388V159.388L392.302 179.168H392.716L404.63 159.388V188H407.068V155.8ZM437.641 188H440.217L427.751 155.8H425.175L412.663 188H415.239L418.367 179.812H434.513L437.641 188ZM419.287 177.512L426.463 158.79L433.639 177.512H419.287ZM463.314 155.8H440.59V158.1H450.71V188H453.194V158.1H463.314V155.8ZM471.734 185.7V172.912H486.454V170.612H471.734V158.1H487.604V155.8H469.296V188H487.834V185.7H471.734ZM527.707 155.8H504.983V158.1H515.103V188H517.587V158.1H527.707V155.8ZM554.02 188H556.826L548.822 174.476C552.916 173.372 555.906 169.692 555.906 165.322C555.906 160.078 551.628 155.8 546.384 155.8H533.688V188H536.126V174.798H546.292L554.02 188ZM536.126 158.1H546.384C550.294 158.1 553.468 161.32 553.468 165.322C553.468 169.278 550.294 172.498 546.384 172.498H536.126V158.1ZM584.485 188H587.061L574.595 155.8H572.019L559.507 188H562.083L565.211 179.812H581.357L584.485 188ZM566.131 177.512L573.307 158.79L580.483 177.512H566.131ZM604.767 155.8H592.669V188H604.767C613.645 188 619.947 180.778 619.947 171.9C619.947 163.022 613.645 155.8 604.767 155.8ZM604.767 185.7H595.107V158.1H604.767C612.357 158.1 617.555 164.264 617.555 171.9C617.555 179.536 612.357 185.7 604.767 185.7ZM629.449 185.7V172.912H644.169V170.612H629.449V158.1H645.319V155.8H627.011V188H645.549V185.7H629.449ZM662.302 188.506C668.696 188.506 672.882 185.01 672.882 179.674C672.882 174.108 667.914 172.314 662.21 170.428C657.61 168.91 654.344 167.714 654.344 163.85C654.344 160.262 657.15 157.64 661.612 157.64C666.212 157.64 668.696 160.308 669.892 163.206L671.962 162.056C670.398 158.33 666.902 155.294 661.612 155.294C656.138 155.294 651.86 158.652 651.86 163.942C651.86 169.554 656.69 171.072 662.072 172.82C666.994 174.384 670.398 175.856 670.398 179.72C670.398 183.4 667.684 186.16 662.302 186.16C657.012 186.16 653.746 183.538 652.642 179.674L650.526 180.916C651.998 185.47 656.276 188.506 662.302 188.506Z" fill="white"/>
<path d="M20.44 246.14C20.2267 246.14 20.0533 246.093 19.92 246C19.8 245.893 19.7267 245.76 19.7 245.6C19.6867 245.427 19.7267 245.233 19.82 245.02L25.32 232.5C25.44 232.233 25.58 232.047 25.74 231.94C25.9133 231.82 26.1 231.76 26.3 231.76C26.5 231.76 26.68 231.82 26.84 231.94C27.0133 232.047 27.1533 232.233 27.26 232.5L32.78 245.02C32.8867 245.233 32.9267 245.427 32.9 245.6C32.8867 245.773 32.82 245.907 32.7 246C32.58 246.093 32.4133 246.14 32.2 246.14C31.96 246.14 31.7667 246.08 31.62 245.96C31.4733 245.827 31.3533 245.64 31.26 245.4L29.78 241.98L30.58 242.4H21.98L22.8 241.98L21.34 245.4C21.22 245.653 21.0933 245.84 20.96 245.96C20.8267 246.08 20.6533 246.14 20.44 246.14ZM26.28 233.82L23.06 241.4L22.58 241.02H29.98L29.54 241.4L26.32 233.82H26.28ZM38.5303 246.18C37.7436 246.18 37.0903 246.04 36.5703 245.76C36.0636 245.467 35.677 245.033 35.4103 244.46C35.157 243.887 35.0303 243.173 35.0303 242.32V236.96C35.0303 236.68 35.097 236.473 35.2303 236.34C35.377 236.207 35.577 236.14 35.8303 236.14C36.097 236.14 36.297 236.207 36.4303 236.34C36.577 236.473 36.6503 236.68 36.6503 236.96V242.3C36.6503 243.153 36.8236 243.793 37.1703 244.22C37.5303 244.633 38.0903 244.84 38.8503 244.84C39.677 244.84 40.3503 244.56 40.8703 244C41.3903 243.44 41.6503 242.707 41.6503 241.8V236.96C41.6503 236.68 41.717 236.473 41.8503 236.34C41.997 236.207 42.2036 236.14 42.4703 236.14C42.7236 236.14 42.917 236.207 43.0503 236.34C43.197 236.473 43.2703 236.68 43.2703 236.96V245.3C43.2703 245.86 43.0103 246.14 42.4903 246.14C42.237 246.14 42.037 246.067 41.8903 245.92C41.757 245.773 41.6903 245.567 41.6903 245.3V243.48L41.9503 243.76C41.6836 244.547 41.2436 245.147 40.6303 245.56C40.0303 245.973 39.3303 246.18 38.5303 246.18ZM50.2013 246.18C49.4413 246.18 48.8013 246.047 48.2813 245.78C47.7746 245.5 47.3946 245.1 47.1413 244.58C46.8879 244.047 46.7613 243.4 46.7613 242.64V237.54H45.4213C45.1946 237.54 45.0213 237.487 44.9013 237.38C44.7812 237.26 44.7212 237.1 44.7212 236.9C44.7212 236.7 44.7812 236.547 44.9013 236.44C45.0213 236.333 45.1946 236.28 45.4213 236.28H46.7613V233.98C46.7613 233.713 46.8346 233.513 46.9813 233.38C47.1279 233.233 47.3279 233.16 47.5813 233.16C47.8346 233.16 48.0279 233.233 48.1613 233.38C48.3079 233.513 48.3813 233.713 48.3813 233.98V236.28H50.9013C51.1279 236.28 51.3013 236.333 51.4213 236.44C51.5413 236.547 51.6013 236.7 51.6013 236.9C51.6013 237.1 51.5413 237.26 51.4213 237.38C51.3013 237.487 51.1279 237.54 50.9013 237.54H48.3813V242.48C48.3813 243.24 48.5413 243.82 48.8613 244.22C49.1813 244.607 49.7013 244.8 50.4213 244.8C50.6746 244.8 50.8879 244.773 51.0613 244.72C51.2479 244.667 51.4013 244.64 51.5213 244.64C51.6413 244.627 51.7413 244.667 51.8213 244.76C51.9013 244.853 51.9413 245.013 51.9413 245.24C51.9413 245.4 51.9079 245.547 51.8413 245.68C51.7879 245.813 51.6879 245.907 51.5413 245.96C51.3813 246.013 51.1679 246.06 50.9013 246.1C50.6479 246.153 50.4146 246.18 50.2013 246.18ZM57.2358 246.18C56.2891 246.18 55.4691 245.973 54.7758 245.56C54.0824 245.147 53.5424 244.567 53.1558 243.82C52.7824 243.06 52.5958 242.167 52.5958 241.14C52.5958 240.367 52.7024 239.673 52.9158 239.06C53.1291 238.433 53.4424 237.9 53.8558 237.46C54.2691 237.02 54.7558 236.687 55.3158 236.46C55.8891 236.22 56.5291 236.1 57.2358 236.1C58.1824 236.1 59.0024 236.307 59.6958 236.72C60.3891 237.133 60.9224 237.72 61.2958 238.48C61.6824 239.227 61.8758 240.113 61.8758 241.14C61.8758 241.913 61.7691 242.607 61.5558 243.22C61.3424 243.833 61.0291 244.367 60.6158 244.82C60.2024 245.26 59.7091 245.6 59.1358 245.84C58.5758 246.067 57.9424 246.18 57.2358 246.18ZM57.2358 244.88C57.8358 244.88 58.3624 244.733 58.8158 244.44C59.2691 244.147 59.6158 243.72 59.8558 243.16C60.1091 242.6 60.2358 241.927 60.2358 241.14C60.2358 239.927 59.9624 239 59.4158 238.36C58.8824 237.72 58.1558 237.4 57.2358 237.4C56.6224 237.4 56.0891 237.547 55.6358 237.84C55.1958 238.12 54.8491 238.54 54.5958 239.1C54.3558 239.647 54.2358 240.327 54.2358 241.14C54.2358 242.34 54.5091 243.267 55.0558 243.92C55.6024 244.56 56.3291 244.88 57.2358 244.88ZM65.1491 246.14C64.8824 246.14 64.6824 246.067 64.5491 245.92C64.4157 245.773 64.3491 245.567 64.3491 245.3V236.96C64.3491 236.693 64.4157 236.493 64.5491 236.36C64.6824 236.213 64.8757 236.14 65.1291 236.14C65.3824 236.14 65.5757 236.213 65.7091 236.36C65.8557 236.493 65.9291 236.693 65.9291 236.96V238.72L65.7091 238.44C65.9624 237.693 66.3691 237.12 66.9291 236.72C67.5024 236.307 68.1824 236.1 68.9691 236.1C69.7957 236.1 70.4624 236.3 70.9691 236.7C71.4891 237.087 71.8357 237.693 72.0091 238.52H71.7091C71.9491 237.773 72.3757 237.187 72.9891 236.76C73.6157 236.32 74.3424 236.1 75.1691 236.1C75.9024 236.1 76.5024 236.24 76.9691 236.52C77.4491 236.8 77.8091 237.227 78.0491 237.8C78.2891 238.36 78.4091 239.073 78.4091 239.94V245.3C78.4091 245.567 78.3357 245.773 78.1891 245.92C78.0557 246.067 77.8557 246.14 77.5891 246.14C77.3357 246.14 77.1357 246.067 76.9891 245.92C76.8557 245.773 76.7891 245.567 76.7891 245.3V240.02C76.7891 239.127 76.6357 238.473 76.3291 238.06C76.0224 237.633 75.5024 237.42 74.7691 237.42C73.9691 237.42 73.3357 237.7 72.8691 238.26C72.4157 238.807 72.1891 239.553 72.1891 240.5V245.3C72.1891 245.567 72.1157 245.773 71.9691 245.92C71.8357 246.067 71.6357 246.14 71.3691 246.14C71.1157 246.14 70.9157 246.067 70.7691 245.92C70.6357 245.773 70.5691 245.567 70.5691 245.3V240.02C70.5691 239.127 70.4091 238.473 70.0891 238.06C69.7824 237.633 69.2691 237.42 68.5491 237.42C67.7491 237.42 67.1157 237.7 66.6491 238.26C66.1957 238.807 65.9691 239.553 65.9691 240.5V245.3C65.9691 245.86 65.6957 246.14 65.1491 246.14ZM84.498 246.18C83.8313 246.18 83.2313 246.053 82.698 245.8C82.178 245.533 81.7646 245.173 81.458 244.72C81.1513 244.267 80.998 243.76 80.998 243.2C80.998 242.48 81.178 241.913 81.538 241.5C81.9113 241.087 82.518 240.793 83.358 240.62C84.2113 240.447 85.3713 240.36 86.838 240.36H87.738V241.42H86.858C85.778 241.42 84.9246 241.473 84.298 241.58C83.6846 241.673 83.2513 241.84 82.998 242.08C82.758 242.32 82.638 242.66 82.638 243.1C82.638 243.647 82.8246 244.093 83.198 244.44C83.5846 244.787 84.1046 244.96 84.758 244.96C85.2913 244.96 85.758 244.833 86.158 244.58C86.5713 244.327 86.8913 243.98 87.118 243.54C87.358 243.1 87.478 242.593 87.478 242.02V239.74C87.478 238.913 87.3113 238.32 86.978 237.96C86.6446 237.587 86.098 237.4 85.338 237.4C84.8713 237.4 84.4046 237.46 83.938 237.58C83.4713 237.7 82.978 237.893 82.458 238.16C82.2713 238.253 82.1113 238.287 81.978 238.26C81.8446 238.22 81.738 238.147 81.658 238.04C81.578 237.933 81.5313 237.813 81.518 237.68C81.5046 237.533 81.5313 237.393 81.598 237.26C81.678 237.127 81.798 237.02 81.958 236.94C82.5446 236.647 83.1246 236.433 83.698 236.3C84.2713 236.167 84.818 236.1 85.338 236.1C86.178 236.1 86.8713 236.24 87.418 236.52C87.9646 236.787 88.3713 237.2 88.638 237.76C88.9046 238.307 89.038 239.013 89.038 239.88V245.3C89.038 245.567 88.9713 245.773 88.838 245.92C88.718 246.067 88.538 246.14 88.298 246.14C88.0446 246.14 87.8513 246.067 87.718 245.92C87.5846 245.773 87.518 245.567 87.518 245.3V243.74H87.698C87.5913 244.247 87.3846 244.68 87.078 245.04C86.7846 245.4 86.418 245.68 85.978 245.88C85.538 246.08 85.0446 246.18 84.498 246.18ZM95.9434 246.18C95.1834 246.18 94.5434 246.047 94.0234 245.78C93.5168 245.5 93.1368 245.1 92.8834 244.58C92.6301 244.047 92.5034 243.4 92.5034 242.64V237.54H91.1634C90.9368 237.54 90.7634 237.487 90.6434 237.38C90.5234 237.26 90.4634 237.1 90.4634 236.9C90.4634 236.7 90.5234 236.547 90.6434 236.44C90.7634 236.333 90.9368 236.28 91.1634 236.28H92.5034V233.98C92.5034 233.713 92.5768 233.513 92.7234 233.38C92.8701 233.233 93.0701 233.16 93.3234 233.16C93.5768 233.16 93.7701 233.233 93.9034 233.38C94.0501 233.513 94.1234 233.713 94.1234 233.98V236.28H96.6434C96.8701 236.28 97.0434 236.333 97.1634 236.44C97.2834 236.547 97.3434 236.7 97.3434 236.9C97.3434 237.1 97.2834 237.26 97.1634 237.38C97.0434 237.487 96.8701 237.54 96.6434 237.54H94.1234V242.48C94.1234 243.24 94.2834 243.82 94.6034 244.22C94.9234 244.607 95.4434 244.8 96.1634 244.8C96.4168 244.8 96.6301 244.773 96.8034 244.72C96.9901 244.667 97.1434 244.64 97.2634 244.64C97.3834 244.627 97.4834 244.667 97.5634 244.76C97.6434 244.853 97.6834 245.013 97.6834 245.24C97.6834 245.4 97.6501 245.547 97.5834 245.68C97.5301 245.813 97.4301 245.907 97.2834 245.96C97.1234 246.013 96.9101 246.06 96.6434 246.1C96.3901 246.153 96.1568 246.18 95.9434 246.18ZM103.318 246.18C102.291 246.18 101.405 245.98 100.658 245.58C99.9246 245.167 99.3513 244.587 98.938 243.84C98.538 243.093 98.338 242.2 98.338 241.16C98.338 240.147 98.538 239.267 98.938 238.52C99.338 237.76 99.8846 237.167 100.578 236.74C101.285 236.313 102.098 236.1 103.018 236.1C103.671 236.1 104.258 236.213 104.778 236.44C105.298 236.653 105.738 236.967 106.098 237.38C106.471 237.793 106.751 238.293 106.938 238.88C107.138 239.467 107.238 240.127 107.238 240.86C107.238 241.073 107.178 241.233 107.058 241.34C106.938 241.433 106.765 241.48 106.538 241.48H99.578V240.42H106.158L105.838 240.68C105.838 239.96 105.731 239.353 105.518 238.86C105.305 238.353 104.991 237.967 104.578 237.7C104.178 237.433 103.671 237.3 103.058 237.3C102.378 237.3 101.798 237.46 101.318 237.78C100.851 238.087 100.498 238.52 100.258 239.08C100.018 239.627 99.898 240.267 99.898 241V241.12C99.898 242.347 100.191 243.28 100.778 243.92C101.378 244.56 102.225 244.88 103.318 244.88C103.771 244.88 104.218 244.82 104.658 244.7C105.111 244.58 105.551 244.38 105.978 244.1C106.165 243.98 106.331 243.927 106.478 243.94C106.638 243.94 106.765 243.987 106.858 244.08C106.951 244.16 107.011 244.267 107.038 244.4C107.078 244.52 107.065 244.653 106.998 244.8C106.945 244.947 106.831 245.073 106.658 245.18C106.218 245.5 105.698 245.747 105.098 245.92C104.498 246.093 103.905 246.18 103.318 246.18ZM119.659 246.18C118.779 246.18 118.019 245.953 117.379 245.5C116.752 245.047 116.332 244.44 116.119 243.68L116.339 243.46V245.3C116.339 245.567 116.265 245.773 116.119 245.92C115.985 246.067 115.792 246.14 115.539 246.14C115.272 246.14 115.072 246.067 114.939 245.92C114.805 245.773 114.739 245.567 114.739 245.3V232.58C114.739 232.313 114.805 232.113 114.939 231.98C115.072 231.833 115.272 231.76 115.539 231.76C115.792 231.76 115.992 231.833 116.139 231.98C116.285 232.113 116.359 232.313 116.359 232.58V238.54H116.119C116.345 237.793 116.772 237.2 117.399 236.76C118.025 236.32 118.779 236.1 119.659 236.1C120.539 236.1 121.299 236.307 121.939 236.72C122.579 237.12 123.072 237.7 123.419 238.46C123.779 239.207 123.959 240.1 123.959 241.14C123.959 242.167 123.779 243.06 123.419 243.82C123.072 244.567 122.572 245.147 121.919 245.56C121.279 245.973 120.525 246.18 119.659 246.18ZM119.319 244.88C119.932 244.88 120.459 244.733 120.899 244.44C121.352 244.147 121.699 243.72 121.939 243.16C122.192 242.6 122.319 241.927 122.319 241.14C122.319 239.927 122.045 239 121.499 238.36C120.965 237.72 120.239 237.4 119.319 237.4C118.719 237.4 118.192 237.547 117.739 237.84C117.285 238.12 116.932 238.54 116.679 239.1C116.439 239.647 116.319 240.327 116.319 241.14C116.319 242.34 116.592 243.267 117.139 243.92C117.685 244.56 118.412 244.88 119.319 244.88ZM130.439 246.18C129.492 246.18 128.672 245.973 127.979 245.56C127.286 245.147 126.746 244.567 126.359 243.82C125.986 243.06 125.799 242.167 125.799 241.14C125.799 240.367 125.906 239.673 126.119 239.06C126.332 238.433 126.646 237.9 127.059 237.46C127.472 237.02 127.959 236.687 128.519 236.46C129.092 236.22 129.732 236.1 130.439 236.1C131.386 236.1 132.206 236.307 132.899 236.72C133.592 237.133 134.126 237.72 134.499 238.48C134.886 239.227 135.079 240.113 135.079 241.14C135.079 241.913 134.972 242.607 134.759 243.22C134.546 243.833 134.232 244.367 133.819 244.82C133.406 245.26 132.912 245.6 132.339 245.84C131.779 246.067 131.146 246.18 130.439 246.18ZM130.439 244.88C131.039 244.88 131.566 244.733 132.019 244.44C132.472 244.147 132.819 243.72 133.059 243.16C133.312 242.6 133.439 241.927 133.439 241.14C133.439 239.927 133.166 239 132.619 238.36C132.086 237.72 131.359 237.4 130.439 237.4C129.826 237.4 129.292 237.547 128.839 237.84C128.399 238.12 128.052 238.54 127.799 239.1C127.559 239.647 127.439 240.327 127.439 241.14C127.439 242.34 127.712 243.267 128.259 243.92C128.806 244.56 129.532 244.88 130.439 244.88ZM138.332 246.14C138.066 246.14 137.859 246.067 137.712 245.92C137.579 245.773 137.512 245.567 137.512 245.3V236.96C137.512 236.693 137.579 236.493 137.712 236.36C137.846 236.213 138.039 236.14 138.292 236.14C138.546 236.14 138.739 236.213 138.872 236.36C139.019 236.493 139.092 236.693 139.092 236.96V238.58H138.892C139.106 237.793 139.512 237.187 140.112 236.76C140.712 236.333 141.452 236.107 142.332 236.08C142.532 236.067 142.692 236.113 142.812 236.22C142.932 236.313 142.999 236.48 143.012 236.72C143.026 236.947 142.972 237.127 142.852 237.26C142.732 237.393 142.546 237.473 142.292 237.5L141.972 237.54C141.066 237.62 140.366 237.913 139.872 238.42C139.392 238.913 139.152 239.593 139.152 240.46V245.3C139.152 245.567 139.079 245.773 138.932 245.92C138.799 246.067 138.599 246.14 138.332 246.14ZM145.48 246.1C145.213 246.1 145.013 246.027 144.88 245.88C144.747 245.72 144.68 245.5 144.68 245.22V237.04C144.68 236.76 144.747 236.547 144.88 236.4C145.013 236.253 145.213 236.18 145.48 236.18C145.733 236.18 145.933 236.253 146.08 236.4C146.227 236.547 146.3 236.76 146.3 237.04V245.22C146.3 245.5 146.227 245.72 146.08 245.88C145.947 246.027 145.747 246.1 145.48 246.1ZM145.48 233.94C145.147 233.94 144.887 233.853 144.7 233.68C144.513 233.493 144.42 233.247 144.42 232.94C144.42 232.62 144.513 232.38 144.7 232.22C144.887 232.047 145.147 231.96 145.48 231.96C145.827 231.96 146.087 232.047 146.26 232.22C146.447 232.38 146.54 232.62 146.54 232.94C146.54 233.247 146.447 233.493 146.26 233.68C146.087 233.853 145.827 233.94 145.48 233.94ZM150.129 246.14C149.862 246.14 149.662 246.067 149.529 245.92C149.395 245.773 149.329 245.567 149.329 245.3V236.96C149.329 236.693 149.395 236.493 149.529 236.36C149.662 236.213 149.855 236.14 150.109 236.14C150.362 236.14 150.555 236.213 150.689 236.36C150.835 236.493 150.909 236.693 150.909 236.96V238.68L150.689 238.44C150.969 237.667 151.422 237.087 152.049 236.7C152.689 236.3 153.422 236.1 154.249 236.1C155.022 236.1 155.662 236.24 156.169 236.52C156.689 236.8 157.075 237.227 157.329 237.8C157.582 238.36 157.709 239.073 157.709 239.94V245.3C157.709 245.567 157.635 245.773 157.489 245.92C157.355 246.067 157.162 246.14 156.909 246.14C156.642 246.14 156.435 246.067 156.289 245.92C156.155 245.773 156.089 245.567 156.089 245.3V240.04C156.089 239.133 155.909 238.473 155.549 238.06C155.202 237.633 154.642 237.42 153.869 237.42C152.975 237.42 152.262 237.7 151.729 238.26C151.209 238.807 150.949 239.54 150.949 240.46V245.3C150.949 245.86 150.675 246.14 150.129 246.14ZM164.996 249.78C164.289 249.78 163.596 249.693 162.916 249.52C162.249 249.36 161.642 249.1 161.096 248.74C160.936 248.647 160.829 248.533 160.776 248.4C160.736 248.267 160.729 248.133 160.756 248C160.782 247.88 160.842 247.767 160.936 247.66C161.029 247.567 161.136 247.507 161.256 247.48C161.389 247.453 161.522 247.473 161.656 247.54C162.242 247.9 162.802 248.147 163.336 248.28C163.869 248.413 164.396 248.48 164.916 248.48C165.862 248.48 166.576 248.227 167.056 247.72C167.549 247.213 167.796 246.48 167.796 245.52V243.26H167.996C167.796 244.033 167.369 244.647 166.716 245.1C166.076 245.553 165.322 245.78 164.456 245.78C163.562 245.78 162.789 245.58 162.136 245.18C161.482 244.767 160.976 244.193 160.616 243.46C160.269 242.727 160.096 241.88 160.096 240.92C160.096 240.2 160.196 239.547 160.396 238.96C160.596 238.36 160.882 237.853 161.256 237.44C161.642 237.013 162.102 236.687 162.636 236.46C163.182 236.22 163.789 236.1 164.456 236.1C165.336 236.1 166.096 236.327 166.736 236.78C167.376 237.22 167.789 237.82 167.976 238.58L167.776 238.82V236.96C167.776 236.693 167.842 236.493 167.976 236.36C168.122 236.213 168.322 236.14 168.576 236.14C168.842 236.14 169.042 236.213 169.176 236.36C169.309 236.493 169.376 236.693 169.376 236.96V245.3C169.376 246.78 169.002 247.893 168.256 248.64C167.522 249.4 166.436 249.78 164.996 249.78ZM164.756 244.46C165.382 244.46 165.922 244.32 166.376 244.04C166.829 243.747 167.176 243.333 167.416 242.8C167.669 242.267 167.796 241.64 167.796 240.92C167.796 239.84 167.522 238.987 166.976 238.36C166.429 237.72 165.689 237.4 164.756 237.4C164.142 237.4 163.609 237.547 163.156 237.84C162.702 238.12 162.349 238.527 162.096 239.06C161.856 239.58 161.736 240.2 161.736 240.92C161.736 242 162.009 242.86 162.556 243.5C163.102 244.14 163.836 244.46 164.756 244.46ZM173.375 247.9C173.241 248.073 173.101 248.173 172.955 248.2C172.808 248.227 172.681 248.2 172.575 248.12C172.468 248.04 172.408 247.927 172.395 247.78C172.395 247.633 172.461 247.473 172.595 247.3C172.808 247.02 172.955 246.733 173.035 246.44C173.115 246.16 173.155 245.9 173.155 245.66L173.235 246.08C172.888 246.08 172.608 245.98 172.395 245.78C172.195 245.567 172.095 245.3 172.095 244.98C172.095 244.66 172.188 244.4 172.375 244.2C172.575 243.987 172.835 243.88 173.155 243.88C173.501 243.88 173.775 244 173.975 244.24C174.175 244.467 174.275 244.8 174.275 245.24C174.275 245.52 174.248 245.807 174.195 246.1C174.141 246.407 174.048 246.713 173.915 247.02C173.781 247.327 173.601 247.62 173.375 247.9ZM182.962 246.14C182.695 246.14 182.495 246.067 182.362 245.92C182.228 245.773 182.162 245.567 182.162 245.3V236.96C182.162 236.693 182.228 236.493 182.362 236.36C182.495 236.213 182.688 236.14 182.942 236.14C183.195 236.14 183.388 236.213 183.522 236.36C183.668 236.493 183.742 236.693 183.742 236.96V238.72L183.522 238.44C183.775 237.693 184.182 237.12 184.742 236.72C185.315 236.307 185.995 236.1 186.782 236.1C187.608 236.1 188.275 236.3 188.782 236.7C189.302 237.087 189.648 237.693 189.822 238.52H189.522C189.762 237.773 190.188 237.187 190.802 236.76C191.428 236.32 192.155 236.1 192.982 236.1C193.715 236.1 194.315 236.24 194.782 236.52C195.262 236.8 195.622 237.227 195.862 237.8C196.102 238.36 196.222 239.073 196.222 239.94V245.3C196.222 245.567 196.148 245.773 196.002 245.92C195.868 246.067 195.668 246.14 195.402 246.14C195.148 246.14 194.948 246.067 194.802 245.92C194.668 245.773 194.602 245.567 194.602 245.3V240.02C194.602 239.127 194.448 238.473 194.142 238.06C193.835 237.633 193.315 237.42 192.582 237.42C191.782 237.42 191.148 237.7 190.682 238.26C190.228 238.807 190.002 239.553 190.002 240.5V245.3C190.002 245.567 189.928 245.773 189.782 245.92C189.648 246.067 189.448 246.14 189.182 246.14C188.928 246.14 188.728 246.067 188.582 245.92C188.448 245.773 188.382 245.567 188.382 245.3V240.02C188.382 239.127 188.222 238.473 187.902 238.06C187.595 237.633 187.082 237.42 186.362 237.42C185.562 237.42 184.928 237.7 184.462 238.26C184.008 238.807 183.782 239.553 183.782 240.5V245.3C183.782 245.86 183.508 246.14 182.962 246.14ZM202.31 246.18C201.644 246.18 201.044 246.053 200.51 245.8C199.99 245.533 199.577 245.173 199.27 244.72C198.964 244.267 198.81 243.76 198.81 243.2C198.81 242.48 198.99 241.913 199.35 241.5C199.724 241.087 200.33 240.793 201.17 240.62C202.024 240.447 203.184 240.36 204.65 240.36H205.55V241.42H204.67C203.59 241.42 202.737 241.473 202.11 241.58C201.497 241.673 201.064 241.84 200.81 242.08C200.57 242.32 200.45 242.66 200.45 243.1C200.45 243.647 200.637 244.093 201.01 244.44C201.397 244.787 201.917 244.96 202.57 244.96C203.104 244.96 203.57 244.833 203.97 244.58C204.384 244.327 204.704 243.98 204.93 243.54C205.17 243.1 205.29 242.593 205.29 242.02V239.74C205.29 238.913 205.124 238.32 204.79 237.96C204.457 237.587 203.91 237.4 203.15 237.4C202.684 237.4 202.217 237.46 201.75 237.58C201.284 237.7 200.79 237.893 200.27 238.16C200.084 238.253 199.924 238.287 199.79 238.26C199.657 238.22 199.55 238.147 199.47 238.04C199.39 237.933 199.344 237.813 199.33 237.68C199.317 237.533 199.344 237.393 199.41 237.26C199.49 237.127 199.61 237.02 199.77 236.94C200.357 236.647 200.937 236.433 201.51 236.3C202.084 236.167 202.63 236.1 203.15 236.1C203.99 236.1 204.684 236.24 205.23 236.52C205.777 236.787 206.184 237.2 206.45 237.76C206.717 238.307 206.85 239.013 206.85 239.88V245.3C206.85 245.567 206.784 245.773 206.65 245.92C206.53 246.067 206.35 246.14 206.11 246.14C205.857 246.14 205.664 246.067 205.53 245.92C205.397 245.773 205.33 245.567 205.33 245.3V243.74H205.51C205.404 244.247 205.197 244.68 204.89 245.04C204.597 245.4 204.23 245.68 203.79 245.88C203.35 246.08 202.857 246.18 202.31 246.18ZM210.656 246.14C210.389 246.14 210.189 246.067 210.056 245.92C209.923 245.773 209.856 245.567 209.856 245.3V236.96C209.856 236.693 209.923 236.493 210.056 236.36C210.189 236.213 210.383 236.14 210.636 236.14C210.889 236.14 211.083 236.213 211.216 236.36C211.363 236.493 211.436 236.693 211.436 236.96V238.68L211.216 238.44C211.496 237.667 211.949 237.087 212.576 236.7C213.216 236.3 213.949 236.1 214.776 236.1C215.549 236.1 216.189 236.24 216.696 236.52C217.216 236.8 217.603 237.227 217.856 237.8C218.109 238.36 218.236 239.073 218.236 239.94V245.3C218.236 245.567 218.163 245.773 218.016 245.92C217.883 246.067 217.689 246.14 217.436 246.14C217.169 246.14 216.963 246.067 216.816 245.92C216.683 245.773 216.616 245.567 216.616 245.3V240.04C216.616 239.133 216.436 238.473 216.076 238.06C215.729 237.633 215.169 237.42 214.396 237.42C213.503 237.42 212.789 237.7 212.256 238.26C211.736 238.807 211.476 239.54 211.476 240.46V245.3C211.476 245.86 211.203 246.14 210.656 246.14ZM224.663 246.18C223.876 246.18 223.223 246.04 222.703 245.76C222.196 245.467 221.81 245.033 221.543 244.46C221.29 243.887 221.163 243.173 221.163 242.32V236.96C221.163 236.68 221.23 236.473 221.363 236.34C221.51 236.207 221.71 236.14 221.963 236.14C222.23 236.14 222.43 236.207 222.563 236.34C222.71 236.473 222.783 236.68 222.783 236.96V242.3C222.783 243.153 222.956 243.793 223.303 244.22C223.663 244.633 224.223 244.84 224.983 244.84C225.81 244.84 226.483 244.56 227.003 244C227.523 243.44 227.783 242.707 227.783 241.8V236.96C227.783 236.68 227.85 236.473 227.983 236.34C228.13 236.207 228.336 236.14 228.603 236.14C228.856 236.14 229.05 236.207 229.183 236.34C229.33 236.473 229.403 236.68 229.403 236.96V245.3C229.403 245.86 229.143 246.14 228.623 246.14C228.37 246.14 228.17 246.067 228.023 245.92C227.89 245.773 227.823 245.567 227.823 245.3V243.48L228.083 243.76C227.816 244.547 227.376 245.147 226.763 245.56C226.163 245.973 225.463 246.18 224.663 246.18ZM235.494 246.18C234.827 246.18 234.227 246.053 233.694 245.8C233.174 245.533 232.761 245.173 232.454 244.72C232.147 244.267 231.994 243.76 231.994 243.2C231.994 242.48 232.174 241.913 232.534 241.5C232.907 241.087 233.514 240.793 234.354 240.62C235.207 240.447 236.367 240.36 237.834 240.36H238.734V241.42H237.854C236.774 241.42 235.921 241.473 235.294 241.58C234.681 241.673 234.247 241.84 233.994 242.08C233.754 242.32 233.634 242.66 233.634 243.1C233.634 243.647 233.821 244.093 234.194 244.44C234.581 244.787 235.101 244.96 235.754 244.96C236.287 244.96 236.754 244.833 237.154 244.58C237.567 244.327 237.887 243.98 238.114 243.54C238.354 243.1 238.474 242.593 238.474 242.02V239.74C238.474 238.913 238.307 238.32 237.974 237.96C237.641 237.587 237.094 237.4 236.334 237.4C235.867 237.4 235.401 237.46 234.934 237.58C234.467 237.7 233.974 237.893 233.454 238.16C233.267 238.253 233.107 238.287 232.974 238.26C232.841 238.22 232.734 238.147 232.654 238.04C232.574 237.933 232.527 237.813 232.514 237.68C232.501 237.533 232.527 237.393 232.594 237.26C232.674 237.127 232.794 237.02 232.954 236.94C233.541 236.647 234.121 236.433 234.694 236.3C235.267 236.167 235.814 236.1 236.334 236.1C237.174 236.1 237.867 236.24 238.414 236.52C238.961 236.787 239.367 237.2 239.634 237.76C239.901 238.307 240.034 239.013 240.034 239.88V245.3C240.034 245.567 239.967 245.773 239.834 245.92C239.714 246.067 239.534 246.14 239.294 246.14C239.041 246.14 238.847 246.067 238.714 245.92C238.581 245.773 238.514 245.567 238.514 245.3V243.74H238.694C238.587 244.247 238.381 244.68 238.074 245.04C237.781 245.4 237.414 245.68 236.974 245.88C236.534 246.08 236.041 246.18 235.494 246.18ZM246 246.18C245.04 246.18 244.306 245.887 243.8 245.3C243.293 244.713 243.04 243.873 243.04 242.78V232.58C243.04 232.313 243.106 232.113 243.24 231.98C243.373 231.833 243.573 231.76 243.84 231.76C244.093 231.76 244.293 231.833 244.44 231.98C244.586 232.113 244.66 232.313 244.66 232.58V242.66C244.66 243.38 244.8 243.92 245.08 244.28C245.373 244.627 245.8 244.8 246.36 244.8C246.48 244.8 246.586 244.793 246.68 244.78C246.773 244.767 246.866 244.76 246.96 244.76C247.106 244.747 247.206 244.78 247.26 244.86C247.326 244.94 247.36 245.1 247.36 245.34C247.36 245.58 247.306 245.76 247.2 245.88C247.093 246 246.92 246.08 246.68 246.12C246.573 246.133 246.46 246.147 246.34 246.16C246.22 246.173 246.106 246.18 246 246.18ZM258.014 246.18C257.254 246.18 256.614 246.047 256.094 245.78C255.587 245.5 255.207 245.1 254.954 244.58C254.7 244.047 254.574 243.4 254.574 242.64V237.54H253.234C253.007 237.54 252.834 237.487 252.714 237.38C252.594 237.26 252.534 237.1 252.534 236.9C252.534 236.7 252.594 236.547 252.714 236.44C252.834 236.333 253.007 236.28 253.234 236.28H254.574V233.98C254.574 233.713 254.647 233.513 254.794 233.38C254.94 233.233 255.14 233.16 255.394 233.16C255.647 233.16 255.84 233.233 255.974 233.38C256.12 233.513 256.194 233.713 256.194 233.98V236.28H258.714C258.94 236.28 259.114 236.333 259.234 236.44C259.354 236.547 259.414 236.7 259.414 236.9C259.414 237.1 259.354 237.26 259.234 237.38C259.114 237.487 258.94 237.54 258.714 237.54H256.194V242.48C256.194 243.24 256.354 243.82 256.674 244.22C256.994 244.607 257.514 244.8 258.234 244.8C258.487 244.8 258.7 244.773 258.874 244.72C259.06 244.667 259.214 244.64 259.334 244.64C259.454 244.627 259.554 244.667 259.634 244.76C259.714 244.853 259.754 245.013 259.754 245.24C259.754 245.4 259.72 245.547 259.654 245.68C259.6 245.813 259.5 245.907 259.354 245.96C259.194 246.013 258.98 246.06 258.714 246.1C258.46 246.153 258.227 246.18 258.014 246.18ZM262.023 246.1C261.756 246.1 261.556 246.027 261.423 245.88C261.29 245.72 261.223 245.5 261.223 245.22V237.04C261.223 236.76 261.29 236.547 261.423 236.4C261.556 236.253 261.756 236.18 262.023 236.18C262.276 236.18 262.476 236.253 262.623 236.4C262.77 236.547 262.843 236.76 262.843 237.04V245.22C262.843 245.5 262.77 245.72 262.623 245.88C262.49 246.027 262.29 246.1 262.023 246.1ZM262.023 233.94C261.69 233.94 261.43 233.853 261.243 233.68C261.056 233.493 260.963 233.247 260.963 232.94C260.963 232.62 261.056 232.38 261.243 232.22C261.43 232.047 261.69 231.96 262.023 231.96C262.37 231.96 262.63 232.047 262.803 232.22C262.99 232.38 263.083 232.62 263.083 232.94C263.083 233.247 262.99 233.493 262.803 233.68C262.63 233.853 262.37 233.94 262.023 233.94ZM266.712 246.14C266.445 246.14 266.245 246.067 266.112 245.92C265.978 245.773 265.912 245.567 265.912 245.3V236.96C265.912 236.693 265.978 236.493 266.112 236.36C266.245 236.213 266.438 236.14 266.692 236.14C266.945 236.14 267.138 236.213 267.272 236.36C267.418 236.493 267.492 236.693 267.492 236.96V238.72L267.272 238.44C267.525 237.693 267.932 237.12 268.492 236.72C269.065 236.307 269.745 236.1 270.532 236.1C271.358 236.1 272.025 236.3 272.532 236.7C273.052 237.087 273.398 237.693 273.572 238.52H273.272C273.512 237.773 273.938 237.187 274.552 236.76C275.178 236.32 275.905 236.1 276.732 236.1C277.465 236.1 278.065 236.24 278.532 236.52C279.012 236.8 279.372 237.227 279.612 237.8C279.852 238.36 279.972 239.073 279.972 239.94V245.3C279.972 245.567 279.898 245.773 279.752 245.92C279.618 246.067 279.418 246.14 279.152 246.14C278.898 246.14 278.698 246.067 278.552 245.92C278.418 245.773 278.352 245.567 278.352 245.3V240.02C278.352 239.127 278.198 238.473 277.892 238.06C277.585 237.633 277.065 237.42 276.332 237.42C275.532 237.42 274.898 237.7 274.432 238.26C273.978 238.807 273.752 239.553 273.752 240.5V245.3C273.752 245.567 273.678 245.773 273.532 245.92C273.398 246.067 273.198 246.14 272.932 246.14C272.678 246.14 272.478 246.067 272.332 245.92C272.198 245.773 272.132 245.567 272.132 245.3V240.02C272.132 239.127 271.972 238.473 271.652 238.06C271.345 237.633 270.832 237.42 270.112 237.42C269.312 237.42 268.678 237.7 268.212 238.26C267.758 238.807 267.532 239.553 267.532 240.5V245.3C267.532 245.86 267.258 246.14 266.712 246.14ZM287.38 246.18C286.354 246.18 285.467 245.98 284.72 245.58C283.987 245.167 283.414 244.587 283 243.84C282.6 243.093 282.4 242.2 282.4 241.16C282.4 240.147 282.6 239.267 283 238.52C283.4 237.76 283.947 237.167 284.64 236.74C285.347 236.313 286.16 236.1 287.08 236.1C287.734 236.1 288.32 236.213 288.84 236.44C289.36 236.653 289.8 236.967 290.16 237.38C290.534 237.793 290.814 238.293 291 238.88C291.2 239.467 291.3 240.127 291.3 240.86C291.3 241.073 291.24 241.233 291.12 241.34C291 241.433 290.827 241.48 290.6 241.48H283.64V240.42H290.22L289.9 240.68C289.9 239.96 289.794 239.353 289.58 238.86C289.367 238.353 289.054 237.967 288.64 237.7C288.24 237.433 287.734 237.3 287.12 237.3C286.44 237.3 285.86 237.46 285.38 237.78C284.914 238.087 284.56 238.52 284.32 239.08C284.08 239.627 283.96 240.267 283.96 241V241.12C283.96 242.347 284.254 243.28 284.84 243.92C285.44 244.56 286.287 244.88 287.38 244.88C287.834 244.88 288.28 244.82 288.72 244.7C289.174 244.58 289.614 244.38 290.04 244.1C290.227 243.98 290.394 243.927 290.54 243.94C290.7 243.94 290.827 243.987 290.92 244.08C291.014 244.16 291.074 244.267 291.1 244.4C291.14 244.52 291.127 244.653 291.06 244.8C291.007 244.947 290.894 245.073 290.72 245.18C290.28 245.5 289.76 245.747 289.16 245.92C288.56 246.093 287.967 246.18 287.38 246.18ZM294.34 241.34C294.14 241.34 293.973 241.28 293.84 241.16C293.707 241.027 293.64 240.867 293.64 240.68C293.64 240.48 293.707 240.32 293.84 240.2C293.973 240.067 294.14 240 294.34 240H298.84C299.027 240 299.187 240.067 299.32 240.2C299.453 240.32 299.52 240.48 299.52 240.68C299.52 240.867 299.453 241.027 299.32 241.16C299.187 241.28 299.027 241.34 298.84 241.34H294.34ZM306.749 246.18C305.776 246.18 304.936 245.967 304.229 245.54C303.523 245.113 302.976 244.52 302.589 243.76C302.216 242.987 302.029 242.093 302.029 241.08C302.029 240.307 302.136 239.613 302.349 239C302.563 238.387 302.876 237.867 303.289 237.44C303.703 237 304.196 236.667 304.769 236.44C305.356 236.213 306.016 236.1 306.749 236.1C307.229 236.1 307.729 236.173 308.249 236.32C308.769 236.467 309.243 236.72 309.669 237.08C309.803 237.173 309.889 237.287 309.929 237.42C309.969 237.553 309.969 237.687 309.929 237.82C309.889 237.94 309.823 238.047 309.729 238.14C309.636 238.22 309.516 238.267 309.369 238.28C309.236 238.293 309.096 238.247 308.949 238.14C308.603 237.873 308.249 237.687 307.889 237.58C307.529 237.473 307.183 237.42 306.849 237.42C306.329 237.42 305.876 237.507 305.489 237.68C305.103 237.84 304.776 238.073 304.509 238.38C304.243 238.687 304.036 239.067 303.889 239.52C303.756 239.973 303.689 240.5 303.689 241.1C303.689 242.26 303.963 243.18 304.509 243.86C305.056 244.527 305.836 244.86 306.849 244.86C307.183 244.86 307.523 244.807 307.869 244.7C308.229 244.593 308.589 244.407 308.949 244.14C309.096 244.033 309.236 243.987 309.369 244C309.503 244.013 309.616 244.067 309.709 244.16C309.803 244.24 309.863 244.347 309.889 244.48C309.929 244.613 309.929 244.747 309.889 244.88C309.849 245 309.763 245.107 309.629 245.2C309.203 245.547 308.736 245.8 308.229 245.96C307.723 246.107 307.229 246.18 306.749 246.18ZM315.732 246.18C314.785 246.18 313.965 245.973 313.272 245.56C312.579 245.147 312.039 244.567 311.652 243.82C311.279 243.06 311.092 242.167 311.092 241.14C311.092 240.367 311.199 239.673 311.412 239.06C311.625 238.433 311.939 237.9 312.352 237.46C312.765 237.02 313.252 236.687 313.812 236.46C314.385 236.22 315.025 236.1 315.732 236.1C316.679 236.1 317.499 236.307 318.192 236.72C318.885 237.133 319.419 237.72 319.792 238.48C320.179 239.227 320.372 240.113 320.372 241.14C320.372 241.913 320.265 242.607 320.052 243.22C319.839 243.833 319.525 244.367 319.112 244.82C318.699 245.26 318.205 245.6 317.632 245.84C317.072 246.067 316.439 246.18 315.732 246.18ZM315.732 244.88C316.332 244.88 316.859 244.733 317.312 244.44C317.765 244.147 318.112 243.72 318.352 243.16C318.605 242.6 318.732 241.927 318.732 241.14C318.732 239.927 318.459 239 317.912 238.36C317.379 237.72 316.652 237.4 315.732 237.4C315.119 237.4 314.585 237.547 314.132 237.84C313.692 238.12 313.345 238.54 313.092 239.1C312.852 239.647 312.732 240.327 312.732 241.14C312.732 242.34 313.005 243.267 313.552 243.92C314.099 244.56 314.825 244.88 315.732 244.88ZM323.605 246.14C323.338 246.14 323.138 246.067 323.005 245.92C322.872 245.773 322.805 245.567 322.805 245.3V236.96C322.805 236.693 322.872 236.493 323.005 236.36C323.138 236.213 323.332 236.14 323.585 236.14C323.838 236.14 324.032 236.213 324.165 236.36C324.312 236.493 324.385 236.693 324.385 236.96V238.68L324.165 238.44C324.445 237.667 324.898 237.087 325.525 236.7C326.165 236.3 326.898 236.1 327.725 236.1C328.498 236.1 329.138 236.24 329.645 236.52C330.165 236.8 330.552 237.227 330.805 237.8C331.058 238.36 331.185 239.073 331.185 239.94V245.3C331.185 245.567 331.112 245.773 330.965 245.92C330.832 246.067 330.638 246.14 330.385 246.14C330.118 246.14 329.912 246.067 329.765 245.92C329.632 245.773 329.565 245.567 329.565 245.3V240.04C329.565 239.133 329.385 238.473 329.025 238.06C328.678 237.633 328.118 237.42 327.345 237.42C326.452 237.42 325.738 237.7 325.205 238.26C324.685 238.807 324.425 239.54 324.425 240.46V245.3C324.425 245.86 324.152 246.14 323.605 246.14ZM337.452 246.18C336.852 246.18 336.246 246.107 335.632 245.96C335.032 245.813 334.472 245.56 333.952 245.2C333.819 245.107 333.726 245 333.672 244.88C333.619 244.747 333.599 244.62 333.612 244.5C333.639 244.367 333.692 244.253 333.772 244.16C333.866 244.067 333.972 244.013 334.092 244C334.226 243.973 334.372 244 334.532 244.08C335.052 244.4 335.552 244.627 336.032 244.76C336.526 244.88 337.012 244.94 337.492 244.94C338.252 244.94 338.826 244.8 339.212 244.52C339.599 244.24 339.792 243.86 339.792 243.38C339.792 243.007 339.666 242.713 339.412 242.5C339.159 242.273 338.759 242.1 338.212 241.98L336.392 241.58C335.552 241.407 334.926 241.107 334.512 240.68C334.112 240.253 333.912 239.7 333.912 239.02C333.912 238.42 334.066 237.907 334.372 237.48C334.692 237.04 335.139 236.7 335.712 236.46C336.286 236.22 336.952 236.1 337.712 236.1C338.299 236.1 338.852 236.18 339.372 236.34C339.906 236.487 340.386 236.727 340.812 237.06C340.946 237.153 341.032 237.267 341.072 237.4C341.126 237.52 341.132 237.647 341.092 237.78C341.066 237.9 341.006 238.007 340.912 238.1C340.819 238.18 340.706 238.227 340.572 238.24C340.439 238.253 340.299 238.213 340.152 238.12C339.752 237.853 339.346 237.66 338.932 237.54C338.519 237.407 338.112 237.34 337.712 237.34C336.966 237.34 336.399 237.487 336.012 237.78C335.626 238.073 335.432 238.46 335.432 238.94C335.432 239.313 335.552 239.62 335.792 239.86C336.032 240.1 336.406 240.273 336.912 240.38L338.732 240.76C339.599 240.947 340.246 241.247 340.672 241.66C341.112 242.06 341.332 242.607 341.332 243.3C341.332 244.18 340.979 244.88 340.272 245.4C339.566 245.92 338.626 246.18 337.452 246.18ZM347.241 246.18C346.455 246.18 345.801 246.04 345.281 245.76C344.775 245.467 344.388 245.033 344.121 244.46C343.868 243.887 343.741 243.173 343.741 242.32V236.96C343.741 236.68 343.808 236.473 343.941 236.34C344.088 236.207 344.288 236.14 344.541 236.14C344.808 236.14 345.008 236.207 345.141 236.34C345.288 236.473 345.361 236.68 345.361 236.96V242.3C345.361 243.153 345.535 243.793 345.881 244.22C346.241 244.633 346.801 244.84 347.561 244.84C348.388 244.84 349.061 244.56 349.581 244C350.101 243.44 350.361 242.707 350.361 241.8V236.96C350.361 236.68 350.428 236.473 350.561 236.34C350.708 236.207 350.915 236.14 351.181 236.14C351.435 236.14 351.628 236.207 351.761 236.34C351.908 236.473 351.981 236.68 351.981 236.96V245.3C351.981 245.86 351.721 246.14 351.201 246.14C350.948 246.14 350.748 246.067 350.601 245.92C350.468 245.773 350.401 245.567 350.401 245.3V243.48L350.661 243.76C350.395 244.547 349.955 245.147 349.341 245.56C348.741 245.973 348.041 246.18 347.241 246.18ZM355.852 246.14C355.586 246.14 355.386 246.067 355.252 245.92C355.119 245.773 355.052 245.567 355.052 245.3V236.96C355.052 236.693 355.119 236.493 355.252 236.36C355.386 236.213 355.579 236.14 355.832 236.14C356.086 236.14 356.279 236.213 356.412 236.36C356.559 236.493 356.632 236.693 356.632 236.96V238.72L356.412 238.44C356.666 237.693 357.072 237.12 357.632 236.72C358.206 236.307 358.886 236.1 359.672 236.1C360.499 236.1 361.166 236.3 361.672 236.7C362.192 237.087 362.539 237.693 362.712 238.52H362.412C362.652 237.773 363.079 237.187 363.692 236.76C364.319 236.32 365.046 236.1 365.872 236.1C366.606 236.1 367.206 236.24 367.672 236.52C368.152 236.8 368.512 237.227 368.752 237.8C368.992 238.36 369.112 239.073 369.112 239.94V245.3C369.112 245.567 369.039 245.773 368.892 245.92C368.759 246.067 368.559 246.14 368.292 246.14C368.039 246.14 367.839 246.067 367.692 245.92C367.559 245.773 367.492 245.567 367.492 245.3V240.02C367.492 239.127 367.339 238.473 367.032 238.06C366.726 237.633 366.206 237.42 365.472 237.42C364.672 237.42 364.039 237.7 363.572 238.26C363.119 238.807 362.892 239.553 362.892 240.5V245.3C362.892 245.567 362.819 245.773 362.672 245.92C362.539 246.067 362.339 246.14 362.072 246.14C361.819 246.14 361.619 246.067 361.472 245.92C361.339 245.773 361.272 245.567 361.272 245.3V240.02C361.272 239.127 361.112 238.473 360.792 238.06C360.486 237.633 359.972 237.42 359.252 237.42C358.452 237.42 357.819 237.7 357.352 238.26C356.899 238.807 356.672 239.553 356.672 240.5V245.3C356.672 245.86 356.399 246.14 355.852 246.14ZM372.941 246.1C372.674 246.1 372.474 246.027 372.341 245.88C372.208 245.72 372.141 245.5 372.141 245.22V237.04C372.141 236.76 372.208 236.547 372.341 236.4C372.474 236.253 372.674 236.18 372.941 236.18C373.194 236.18 373.394 236.253 373.541 236.4C373.688 236.547 373.761 236.76 373.761 237.04V245.22C373.761 245.5 373.688 245.72 373.541 245.88C373.408 246.027 373.208 246.1 372.941 246.1ZM372.941 233.94C372.608 233.94 372.348 233.853 372.161 233.68C371.974 233.493 371.881 233.247 371.881 232.94C371.881 232.62 371.974 232.38 372.161 232.22C372.348 232.047 372.608 231.96 372.941 231.96C373.288 231.96 373.548 232.047 373.721 232.22C373.908 232.38 374.001 232.62 374.001 232.94C374.001 233.247 373.908 233.493 373.721 233.68C373.548 233.853 373.288 233.94 372.941 233.94ZM377.59 246.14C377.323 246.14 377.123 246.067 376.99 245.92C376.856 245.773 376.79 245.567 376.79 245.3V236.96C376.79 236.693 376.856 236.493 376.99 236.36C377.123 236.213 377.316 236.14 377.57 236.14C377.823 236.14 378.016 236.213 378.15 236.36C378.296 236.493 378.37 236.693 378.37 236.96V238.68L378.15 238.44C378.43 237.667 378.883 237.087 379.51 236.7C380.15 236.3 380.883 236.1 381.71 236.1C382.483 236.1 383.123 236.24 383.63 236.52C384.15 236.8 384.536 237.227 384.79 237.8C385.043 238.36 385.17 239.073 385.17 239.94V245.3C385.17 245.567 385.096 245.773 384.95 245.92C384.816 246.067 384.623 246.14 384.37 246.14C384.103 246.14 383.896 246.067 383.75 245.92C383.616 245.773 383.55 245.567 383.55 245.3V240.04C383.55 239.133 383.37 238.473 383.01 238.06C382.663 237.633 382.103 237.42 381.33 237.42C380.436 237.42 379.723 237.7 379.19 238.26C378.67 238.807 378.41 239.54 378.41 240.46V245.3C378.41 245.86 378.136 246.14 377.59 246.14ZM392.457 249.78C391.75 249.78 391.057 249.693 390.377 249.52C389.71 249.36 389.103 249.1 388.557 248.74C388.397 248.647 388.29 248.533 388.237 248.4C388.197 248.267 388.19 248.133 388.217 248C388.243 247.88 388.303 247.767 388.397 247.66C388.49 247.567 388.597 247.507 388.717 247.48C388.85 247.453 388.983 247.473 389.117 247.54C389.703 247.9 390.263 248.147 390.797 248.28C391.33 248.413 391.857 248.48 392.377 248.48C393.323 248.48 394.037 248.227 394.517 247.72C395.01 247.213 395.257 246.48 395.257 245.52V243.26H395.457C395.257 244.033 394.83 244.647 394.177 245.1C393.537 245.553 392.783 245.78 391.917 245.78C391.023 245.78 390.25 245.58 389.597 245.18C388.943 244.767 388.437 244.193 388.077 243.46C387.73 242.727 387.557 241.88 387.557 240.92C387.557 240.2 387.657 239.547 387.857 238.96C388.057 238.36 388.343 237.853 388.717 237.44C389.103 237.013 389.563 236.687 390.097 236.46C390.643 236.22 391.25 236.1 391.917 236.1C392.797 236.1 393.557 236.327 394.197 236.78C394.837 237.22 395.25 237.82 395.437 238.58L395.237 238.82V236.96C395.237 236.693 395.303 236.493 395.437 236.36C395.583 236.213 395.783 236.14 396.037 236.14C396.303 236.14 396.503 236.213 396.637 236.36C396.77 236.493 396.837 236.693 396.837 236.96V245.3C396.837 246.78 396.463 247.893 395.717 248.64C394.983 249.4 393.897 249.78 392.457 249.78ZM392.217 244.46C392.843 244.46 393.383 244.32 393.837 244.04C394.29 243.747 394.637 243.333 394.877 242.8C395.13 242.267 395.257 241.64 395.257 240.92C395.257 239.84 394.983 238.987 394.437 238.36C393.89 237.72 393.15 237.4 392.217 237.4C391.603 237.4 391.07 237.547 390.617 237.84C390.163 238.12 389.81 238.527 389.557 239.06C389.317 239.58 389.197 240.2 389.197 240.92C389.197 242 389.47 242.86 390.017 243.5C390.563 244.14 391.297 244.46 392.217 244.46ZM408.732 246.18C407.865 246.18 407.105 245.973 406.452 245.56C405.812 245.147 405.312 244.567 404.952 243.82C404.605 243.06 404.432 242.167 404.432 241.14C404.432 240.1 404.605 239.207 404.952 238.46C405.312 237.7 405.812 237.12 406.452 236.72C407.105 236.307 407.865 236.1 408.732 236.1C409.612 236.1 410.365 236.32 410.992 236.76C411.618 237.2 412.038 237.793 412.252 238.54H412.032V232.58C412.032 232.313 412.098 232.113 412.232 231.98C412.378 231.833 412.585 231.76 412.852 231.76C413.105 231.76 413.298 231.833 413.432 231.98C413.578 232.113 413.652 232.313 413.652 232.58V245.3C413.652 245.567 413.585 245.773 413.452 245.92C413.318 246.067 413.118 246.14 412.852 246.14C412.598 246.14 412.398 246.067 412.252 245.92C412.118 245.773 412.052 245.567 412.052 245.3V243.4L412.272 243.68C412.058 244.44 411.632 245.047 410.992 245.5C410.365 245.953 409.612 246.18 408.732 246.18ZM409.072 244.88C409.672 244.88 410.198 244.733 410.652 244.44C411.105 244.147 411.452 243.72 411.692 243.16C411.945 242.6 412.072 241.927 412.072 241.14C412.072 239.927 411.798 239 411.252 238.36C410.718 237.72 409.992 237.4 409.072 237.4C408.458 237.4 407.925 237.547 407.472 237.84C407.032 238.12 406.685 238.54 406.432 239.1C406.192 239.647 406.072 240.327 406.072 241.14C406.072 242.34 406.345 243.267 406.892 243.92C407.438 244.56 408.165 244.88 409.072 244.88ZM419.752 246.18C419.085 246.18 418.485 246.053 417.952 245.8C417.432 245.533 417.019 245.173 416.712 244.72C416.405 244.267 416.252 243.76 416.252 243.2C416.252 242.48 416.432 241.913 416.792 241.5C417.165 241.087 417.772 240.793 418.612 240.62C419.465 240.447 420.625 240.36 422.092 240.36H422.992V241.42H422.112C421.032 241.42 420.179 241.473 419.552 241.58C418.939 241.673 418.505 241.84 418.252 242.08C418.012 242.32 417.892 242.66 417.892 243.1C417.892 243.647 418.079 244.093 418.452 244.44C418.839 244.787 419.359 244.96 420.012 244.96C420.545 244.96 421.012 244.833 421.412 244.58C421.825 244.327 422.145 243.98 422.372 243.54C422.612 243.1 422.732 242.593 422.732 242.02V239.74C422.732 238.913 422.565 238.32 422.232 237.96C421.899 237.587 421.352 237.4 420.592 237.4C420.125 237.4 419.659 237.46 419.192 237.58C418.725 237.7 418.232 237.893 417.712 238.16C417.525 238.253 417.365 238.287 417.232 238.26C417.099 238.22 416.992 238.147 416.912 238.04C416.832 237.933 416.785 237.813 416.772 237.68C416.759 237.533 416.785 237.393 416.852 237.26C416.932 237.127 417.052 237.02 417.212 236.94C417.799 236.647 418.379 236.433 418.952 236.3C419.525 236.167 420.072 236.1 420.592 236.1C421.432 236.1 422.125 236.24 422.672 236.52C423.219 236.787 423.625 237.2 423.892 237.76C424.159 238.307 424.292 239.013 424.292 239.88V245.3C424.292 245.567 424.225 245.773 424.092 245.92C423.972 246.067 423.792 246.14 423.552 246.14C423.299 246.14 423.105 246.067 422.972 245.92C422.839 245.773 422.772 245.567 422.772 245.3V243.74H422.952C422.845 244.247 422.639 244.68 422.332 245.04C422.039 245.4 421.672 245.68 421.232 245.88C420.792 246.08 420.299 246.18 419.752 246.18ZM428.097 246.1C427.831 246.1 427.631 246.027 427.497 245.88C427.364 245.72 427.297 245.5 427.297 245.22V237.04C427.297 236.76 427.364 236.547 427.497 236.4C427.631 236.253 427.831 236.18 428.097 236.18C428.351 236.18 428.551 236.253 428.697 236.4C428.844 236.547 428.917 236.76 428.917 237.04V245.22C428.917 245.5 428.844 245.72 428.697 245.88C428.564 246.027 428.364 246.1 428.097 246.1ZM428.097 233.94C427.764 233.94 427.504 233.853 427.317 233.68C427.131 233.493 427.037 233.247 427.037 232.94C427.037 232.62 427.131 232.38 427.317 232.22C427.504 232.047 427.764 231.96 428.097 231.96C428.444 231.96 428.704 232.047 428.877 232.22C429.064 232.38 429.157 232.62 429.157 232.94C429.157 233.247 429.064 233.493 428.877 233.68C428.704 233.853 428.444 233.94 428.097 233.94ZM434.906 246.18C433.946 246.18 433.212 245.887 432.706 245.3C432.199 244.713 431.946 243.873 431.946 242.78V232.58C431.946 232.313 432.012 232.113 432.146 231.98C432.279 231.833 432.479 231.76 432.746 231.76C432.999 231.76 433.199 231.833 433.346 231.98C433.492 232.113 433.566 232.313 433.566 232.58V242.66C433.566 243.38 433.706 243.92 433.986 244.28C434.279 244.627 434.706 244.8 435.266 244.8C435.386 244.8 435.492 244.793 435.586 244.78C435.679 244.767 435.772 244.76 435.866 244.76C436.012 244.747 436.112 244.78 436.166 244.86C436.232 244.94 436.266 245.1 436.266 245.34C436.266 245.58 436.212 245.76 436.106 245.88C435.999 246 435.826 246.08 435.586 246.12C435.479 246.133 435.366 246.147 435.246 246.16C435.126 246.173 435.012 246.18 434.906 246.18ZM439.809 249.74C439.609 249.74 439.449 249.687 439.329 249.58C439.209 249.473 439.136 249.327 439.109 249.14C439.096 248.967 439.129 248.787 439.209 248.6L440.589 245.5V246.2L436.749 237.28C436.669 237.08 436.642 236.893 436.669 236.72C436.696 236.547 436.776 236.407 436.909 236.3C437.042 236.193 437.229 236.14 437.469 236.14C437.682 236.14 437.849 236.187 437.969 236.28C438.089 236.373 438.196 236.54 438.289 236.78L441.569 244.82H441.029L444.349 236.78C444.456 236.54 444.569 236.373 444.689 236.28C444.809 236.187 444.982 236.14 445.209 236.14C445.422 236.14 445.582 236.193 445.689 236.3C445.809 236.407 445.876 236.547 445.889 236.72C445.916 236.88 445.889 237.06 445.809 237.26L440.689 249.1C440.582 249.34 440.462 249.507 440.329 249.6C440.209 249.693 440.036 249.74 439.809 249.74ZM456.979 246.18C456.219 246.18 455.579 246.047 455.059 245.78C454.552 245.5 454.172 245.1 453.919 244.58C453.665 244.047 453.539 243.4 453.539 242.64V237.54H452.199C451.972 237.54 451.799 237.487 451.679 237.38C451.559 237.26 451.499 237.1 451.499 236.9C451.499 236.7 451.559 236.547 451.679 236.44C451.799 236.333 451.972 236.28 452.199 236.28H453.539V233.98C453.539 233.713 453.612 233.513 453.759 233.38C453.905 233.233 454.105 233.16 454.359 233.16C454.612 233.16 454.805 233.233 454.939 233.38C455.085 233.513 455.159 233.713 455.159 233.98V236.28H457.679C457.905 236.28 458.079 236.333 458.199 236.44C458.319 236.547 458.379 236.7 458.379 236.9C458.379 237.1 458.319 237.26 458.199 237.38C458.079 237.487 457.905 237.54 457.679 237.54H455.159V242.48C455.159 243.24 455.319 243.82 455.639 244.22C455.959 244.607 456.479 244.8 457.199 244.8C457.452 244.8 457.665 244.773 457.839 244.72C458.025 244.667 458.179 244.64 458.299 244.64C458.419 244.627 458.519 244.667 458.599 244.76C458.679 244.853 458.719 245.013 458.719 245.24C458.719 245.4 458.685 245.547 458.619 245.68C458.565 245.813 458.465 245.907 458.319 245.96C458.159 246.013 457.945 246.06 457.679 246.1C457.425 246.153 457.192 246.18 456.979 246.18ZM460.891 246.14C460.624 246.14 460.417 246.067 460.271 245.92C460.137 245.773 460.071 245.567 460.071 245.3V236.96C460.071 236.693 460.137 236.493 460.271 236.36C460.404 236.213 460.597 236.14 460.851 236.14C461.104 236.14 461.297 236.213 461.431 236.36C461.577 236.493 461.651 236.693 461.651 236.96V238.58H461.451C461.664 237.793 462.071 237.187 462.671 236.76C463.271 236.333 464.011 236.107 464.891 236.08C465.091 236.067 465.251 236.113 465.371 236.22C465.491 236.313 465.557 236.48 465.571 236.72C465.584 236.947 465.531 237.127 465.411 237.26C465.291 237.393 465.104 237.473 464.851 237.5L464.531 237.54C463.624 237.62 462.924 237.913 462.431 238.42C461.951 238.913 461.711 239.593 461.711 240.46V245.3C461.711 245.567 461.637 245.773 461.491 245.92C461.357 246.067 461.157 246.14 460.891 246.14ZM470.201 246.18C469.534 246.18 468.934 246.053 468.401 245.8C467.881 245.533 467.468 245.173 467.161 244.72C466.854 244.267 466.701 243.76 466.701 243.2C466.701 242.48 466.881 241.913 467.241 241.5C467.614 241.087 468.221 240.793 469.061 240.62C469.914 240.447 471.074 240.36 472.541 240.36H473.441V241.42H472.561C471.481 241.42 470.628 241.473 470.001 241.58C469.388 241.673 468.954 241.84 468.701 242.08C468.461 242.32 468.341 242.66 468.341 243.1C468.341 243.647 468.528 244.093 468.901 244.44C469.288 244.787 469.808 244.96 470.461 244.96C470.994 244.96 471.461 244.833 471.861 244.58C472.274 244.327 472.594 243.98 472.821 243.54C473.061 243.1 473.181 242.593 473.181 242.02V239.74C473.181 238.913 473.014 238.32 472.681 237.96C472.348 237.587 471.801 237.4 471.041 237.4C470.574 237.4 470.108 237.46 469.641 237.58C469.174 237.7 468.681 237.893 468.161 238.16C467.974 238.253 467.814 238.287 467.681 238.26C467.548 238.22 467.441 238.147 467.361 238.04C467.281 237.933 467.234 237.813 467.221 237.68C467.208 237.533 467.234 237.393 467.301 237.26C467.381 237.127 467.501 237.02 467.661 236.94C468.248 236.647 468.828 236.433 469.401 236.3C469.974 236.167 470.521 236.1 471.041 236.1C471.881 236.1 472.574 236.24 473.121 236.52C473.668 236.787 474.074 237.2 474.341 237.76C474.608 238.307 474.741 239.013 474.741 239.88V245.3C474.741 245.567 474.674 245.773 474.541 245.92C474.421 246.067 474.241 246.14 474.001 246.14C473.748 246.14 473.554 246.067 473.421 245.92C473.288 245.773 473.221 245.567 473.221 245.3V243.74H473.401C473.294 244.247 473.088 244.68 472.781 245.04C472.488 245.4 472.121 245.68 471.681 245.88C471.241 246.08 470.748 246.18 470.201 246.18ZM481.447 246.18C480.58 246.18 479.82 245.973 479.167 245.56C478.527 245.147 478.027 244.567 477.667 243.82C477.32 243.06 477.147 242.167 477.147 241.14C477.147 240.1 477.32 239.207 477.667 238.46C478.027 237.7 478.527 237.12 479.167 236.72C479.82 236.307 480.58 236.1 481.447 236.1C482.327 236.1 483.08 236.32 483.707 236.76C484.333 237.2 484.753 237.793 484.967 238.54H484.747V232.58C484.747 232.313 484.813 232.113 484.947 231.98C485.093 231.833 485.3 231.76 485.567 231.76C485.82 231.76 486.013 231.833 486.147 231.98C486.293 232.113 486.367 232.313 486.367 232.58V245.3C486.367 245.567 486.3 245.773 486.167 245.92C486.033 246.067 485.833 246.14 485.567 246.14C485.313 246.14 485.113 246.067 484.967 245.92C484.833 245.773 484.767 245.567 484.767 245.3V243.4L484.987 243.68C484.773 244.44 484.347 245.047 483.707 245.5C483.08 245.953 482.327 246.18 481.447 246.18ZM481.787 244.88C482.387 244.88 482.913 244.733 483.367 244.44C483.82 244.147 484.167 243.72 484.407 243.16C484.66 242.6 484.787 241.927 484.787 241.14C484.787 239.927 484.513 239 483.967 238.36C483.433 237.72 482.707 237.4 481.787 237.4C481.173 237.4 480.64 237.547 480.187 237.84C479.747 238.12 479.4 238.54 479.147 239.1C478.907 239.647 478.787 240.327 478.787 241.14C478.787 242.34 479.06 243.267 479.607 243.92C480.153 244.56 480.88 244.88 481.787 244.88ZM490.207 246.1C489.94 246.1 489.74 246.027 489.607 245.88C489.473 245.72 489.407 245.5 489.407 245.22V237.04C489.407 236.76 489.473 236.547 489.607 236.4C489.74 236.253 489.94 236.18 490.207 236.18C490.46 236.18 490.66 236.253 490.807 236.4C490.953 236.547 491.027 236.76 491.027 237.04V245.22C491.027 245.5 490.953 245.72 490.807 245.88C490.673 246.027 490.473 246.1 490.207 246.1ZM490.207 233.94C489.873 233.94 489.613 233.853 489.427 233.68C489.24 233.493 489.147 233.247 489.147 232.94C489.147 232.62 489.24 232.38 489.427 232.22C489.613 232.047 489.873 231.96 490.207 231.96C490.553 231.96 490.813 232.047 490.987 232.22C491.173 232.38 491.267 232.62 491.267 232.94C491.267 233.247 491.173 233.493 490.987 233.68C490.813 233.853 490.553 233.94 490.207 233.94ZM494.855 246.14C494.588 246.14 494.388 246.067 494.255 245.92C494.122 245.773 494.055 245.567 494.055 245.3V236.96C494.055 236.693 494.122 236.493 494.255 236.36C494.388 236.213 494.582 236.14 494.835 236.14C495.088 236.14 495.282 236.213 495.415 236.36C495.562 236.493 495.635 236.693 495.635 236.96V238.68L495.415 238.44C495.695 237.667 496.148 237.087 496.775 236.7C497.415 236.3 498.148 236.1 498.975 236.1C499.748 236.1 500.388 236.24 500.895 236.52C501.415 236.8 501.802 237.227 502.055 237.8C502.308 238.36 502.435 239.073 502.435 239.94V245.3C502.435 245.567 502.362 245.773 502.215 245.92C502.082 246.067 501.888 246.14 501.635 246.14C501.368 246.14 501.162 246.067 501.015 245.92C500.882 245.773 500.815 245.567 500.815 245.3V240.04C500.815 239.133 500.635 238.473 500.275 238.06C499.928 237.633 499.368 237.42 498.595 237.42C497.702 237.42 496.988 237.7 496.455 238.26C495.935 238.807 495.675 239.54 495.675 240.46V245.3C495.675 245.86 495.402 246.14 494.855 246.14ZM509.722 249.78C509.016 249.78 508.322 249.693 507.642 249.52C506.976 249.36 506.369 249.1 505.822 248.74C505.662 248.647 505.556 248.533 505.502 248.4C505.462 248.267 505.456 248.133 505.482 248C505.509 247.88 505.569 247.767 505.662 247.66C505.756 247.567 505.862 247.507 505.982 247.48C506.116 247.453 506.249 247.473 506.382 247.54C506.969 247.9 507.529 248.147 508.062 248.28C508.596 248.413 509.122 248.48 509.642 248.48C510.589 248.48 511.302 248.227 511.782 247.72C512.276 247.213 512.522 246.48 512.522 245.52V243.26H512.722C512.522 244.033 512.096 244.647 511.442 245.1C510.802 245.553 510.049 245.78 509.182 245.78C508.289 245.78 507.516 245.58 506.862 245.18C506.209 244.767 505.702 244.193 505.342 243.46C504.996 242.727 504.822 241.88 504.822 240.92C504.822 240.2 504.922 239.547 505.122 238.96C505.322 238.36 505.609 237.853 505.982 237.44C506.369 237.013 506.829 236.687 507.362 236.46C507.909 236.22 508.516 236.1 509.182 236.1C510.062 236.1 510.822 236.327 511.462 236.78C512.102 237.22 512.516 237.82 512.702 238.58L512.502 238.82V236.96C512.502 236.693 512.569 236.493 512.702 236.36C512.849 236.213 513.049 236.14 513.302 236.14C513.569 236.14 513.769 236.213 513.902 236.36C514.036 236.493 514.102 236.693 514.102 236.96V245.3C514.102 246.78 513.729 247.893 512.982 248.64C512.249 249.4 511.162 249.78 509.722 249.78ZM509.482 244.46C510.109 244.46 510.649 244.32 511.102 244.04C511.556 243.747 511.902 243.333 512.142 242.8C512.396 242.267 512.522 241.64 512.522 240.92C512.522 239.84 512.249 238.987 511.702 238.36C511.156 237.72 510.416 237.4 509.482 237.4C508.869 237.4 508.336 237.547 507.882 237.84C507.429 238.12 507.076 238.527 506.822 239.06C506.582 239.58 506.462 240.2 506.462 240.92C506.462 242 506.736 242.86 507.282 243.5C507.829 244.14 508.562 244.46 509.482 244.46ZM526.197 246.18C525.437 246.18 524.797 246.047 524.277 245.78C523.771 245.5 523.391 245.1 523.137 244.58C522.884 244.047 522.757 243.4 522.757 242.64V237.54H521.417C521.191 237.54 521.017 237.487 520.897 237.38C520.777 237.26 520.717 237.1 520.717 236.9C520.717 236.7 520.777 236.547 520.897 236.44C521.017 236.333 521.191 236.28 521.417 236.28H522.757V233.98C522.757 233.713 522.831 233.513 522.977 233.38C523.124 233.233 523.324 233.16 523.577 233.16C523.831 233.16 524.024 233.233 524.157 233.38C524.304 233.513 524.377 233.713 524.377 233.98V236.28H526.897C527.124 236.28 527.297 236.333 527.417 236.44C527.537 236.547 527.597 236.7 527.597 236.9C527.597 237.1 527.537 237.26 527.417 237.38C527.297 237.487 527.124 237.54 526.897 237.54H524.377V242.48C524.377 243.24 524.537 243.82 524.857 244.22C525.177 244.607 525.697 244.8 526.417 244.8C526.671 244.8 526.884 244.773 527.057 244.72C527.244 244.667 527.397 244.64 527.517 244.64C527.637 244.627 527.737 244.667 527.817 244.76C527.897 244.853 527.937 245.013 527.937 245.24C527.937 245.4 527.904 245.547 527.837 245.68C527.784 245.813 527.684 245.907 527.537 245.96C527.377 246.013 527.164 246.06 526.897 246.1C526.644 246.153 526.411 246.18 526.197 246.18ZM532.35 246.18C531.683 246.18 531.083 246.053 530.55 245.8C530.03 245.533 529.616 245.173 529.31 244.72C529.003 244.267 528.85 243.76 528.85 243.2C528.85 242.48 529.03 241.913 529.39 241.5C529.763 241.087 530.37 240.793 531.21 240.62C532.063 240.447 533.223 240.36 534.69 240.36H535.59V241.42H534.71C533.63 241.42 532.776 241.473 532.15 241.58C531.536 241.673 531.103 241.84 530.85 242.08C530.61 242.32 530.49 242.66 530.49 243.1C530.49 243.647 530.676 244.093 531.05 244.44C531.436 244.787 531.956 244.96 532.61 244.96C533.143 244.96 533.61 244.833 534.01 244.58C534.423 244.327 534.743 243.98 534.97 243.54C535.21 243.1 535.33 242.593 535.33 242.02V239.74C535.33 238.913 535.163 238.32 534.83 237.96C534.496 237.587 533.95 237.4 533.19 237.4C532.723 237.4 532.256 237.46 531.79 237.58C531.323 237.7 530.83 237.893 530.31 238.16C530.123 238.253 529.963 238.287 529.83 238.26C529.696 238.22 529.59 238.147 529.51 238.04C529.43 237.933 529.383 237.813 529.37 237.68C529.356 237.533 529.383 237.393 529.45 237.26C529.53 237.127 529.65 237.02 529.81 236.94C530.396 236.647 530.976 236.433 531.55 236.3C532.123 236.167 532.67 236.1 533.19 236.1C534.03 236.1 534.723 236.24 535.27 236.52C535.816 236.787 536.223 237.2 536.49 237.76C536.756 238.307 536.89 239.013 536.89 239.88V245.3C536.89 245.567 536.823 245.773 536.69 245.92C536.57 246.067 536.39 246.14 536.15 246.14C535.896 246.14 535.703 246.067 535.57 245.92C535.436 245.773 535.37 245.567 535.37 245.3V243.74H535.55C535.443 244.247 535.236 244.68 534.93 245.04C534.636 245.4 534.27 245.68 533.83 245.88C533.39 246.08 532.896 246.18 532.35 246.18ZM543.175 246.18C542.575 246.18 541.968 246.107 541.355 245.96C540.755 245.813 540.195 245.56 539.675 245.2C539.542 245.107 539.448 245 539.395 244.88C539.342 244.747 539.322 244.62 539.335 244.5C539.362 244.367 539.415 244.253 539.495 244.16C539.588 244.067 539.695 244.013 539.815 244C539.948 243.973 540.095 244 540.255 244.08C540.775 244.4 541.275 244.627 541.755 244.76C542.248 244.88 542.735 244.94 543.215 244.94C543.975 244.94 544.548 244.8 544.935 244.52C545.322 244.24 545.515 243.86 545.515 243.38C545.515 243.007 545.388 242.713 545.135 242.5C544.882 242.273 544.482 242.1 543.935 241.98L542.115 241.58C541.275 241.407 540.648 241.107 540.235 240.68C539.835 240.253 539.635 239.7 539.635 239.02C539.635 238.42 539.788 237.907 540.095 237.48C540.415 237.04 540.862 236.7 541.435 236.46C542.008 236.22 542.675 236.1 543.435 236.1C544.022 236.1 544.575 236.18 545.095 236.34C545.628 236.487 546.108 236.727 546.535 237.06C546.668 237.153 546.755 237.267 546.795 237.4C546.848 237.52 546.855 237.647 546.815 237.78C546.788 237.9 546.728 238.007 546.635 238.1C546.542 238.18 546.428 238.227 546.295 238.24C546.162 238.253 546.022 238.213 545.875 238.12C545.475 237.853 545.068 237.66 544.655 237.54C544.242 237.407 543.835 237.34 543.435 237.34C542.688 237.34 542.122 237.487 541.735 237.78C541.348 238.073 541.155 238.46 541.155 238.94C541.155 239.313 541.275 239.62 541.515 239.86C541.755 240.1 542.128 240.273 542.635 240.38L544.455 240.76C545.322 240.947 545.968 241.247 546.395 241.66C546.835 242.06 547.055 242.607 547.055 243.3C547.055 244.18 546.702 244.88 545.995 245.4C545.288 245.92 544.348 246.18 543.175 246.18ZM550.324 246.14C550.057 246.14 549.857 246.067 549.724 245.92C549.591 245.773 549.524 245.567 549.524 245.3V232.58C549.524 232.313 549.591 232.113 549.724 231.98C549.857 231.833 550.057 231.76 550.324 231.76C550.577 231.76 550.777 231.833 550.924 231.98C551.071 232.113 551.144 232.313 551.144 232.58V240.6H551.184L555.284 236.68C555.471 236.507 555.631 236.373 555.764 236.28C555.911 236.187 556.104 236.14 556.344 236.14C556.557 236.14 556.724 236.2 556.844 236.32C556.964 236.427 557.017 236.567 557.004 236.74C557.004 236.9 556.924 237.073 556.764 237.26L552.404 241.4V240.52L557.144 244.98C557.331 245.167 557.424 245.347 557.424 245.52C557.424 245.693 557.357 245.84 557.224 245.96C557.104 246.08 556.944 246.14 556.744 246.14C556.504 246.14 556.311 246.093 556.164 246C556.017 245.893 555.837 245.74 555.624 245.54L551.184 241.44H551.144V245.3C551.144 245.86 550.871 246.14 550.324 246.14ZM562.628 246.18C562.028 246.18 561.421 246.107 560.808 245.96C560.208 245.813 559.648 245.56 559.128 245.2C558.995 245.107 558.901 245 558.848 244.88C558.795 244.747 558.775 244.62 558.788 244.5C558.815 244.367 558.868 244.253 558.948 244.16C559.041 244.067 559.148 244.013 559.268 244C559.401 243.973 559.548 244 559.708 244.08C560.228 244.4 560.728 244.627 561.208 244.76C561.701 244.88 562.188 244.94 562.668 244.94C563.428 244.94 564.001 244.8 564.388 244.52C564.775 244.24 564.968 243.86 564.968 243.38C564.968 243.007 564.841 242.713 564.588 242.5C564.335 242.273 563.935 242.1 563.388 241.98L561.568 241.58C560.728 241.407 560.101 241.107 559.688 240.68C559.288 240.253 559.088 239.7 559.088 239.02C559.088 238.42 559.241 237.907 559.548 237.48C559.868 237.04 560.315 236.7 560.888 236.46C561.461 236.22 562.128 236.1 562.888 236.1C563.475 236.1 564.028 236.18 564.548 236.34C565.081 236.487 565.561 236.727 565.988 237.06C566.121 237.153 566.208 237.267 566.248 237.4C566.301 237.52 566.308 237.647 566.268 237.78C566.241 237.9 566.181 238.007 566.088 238.1C565.995 238.18 565.881 238.227 565.748 238.24C565.615 238.253 565.475 238.213 565.328 238.12C564.928 237.853 564.521 237.66 564.108 237.54C563.695 237.407 563.288 237.34 562.888 237.34C562.141 237.34 561.575 237.487 561.188 237.78C560.801 238.073 560.608 238.46 560.608 238.94C560.608 239.313 560.728 239.62 560.968 239.86C561.208 240.1 561.581 240.273 562.088 240.38L563.908 240.76C564.775 240.947 565.421 241.247 565.848 241.66C566.288 242.06 566.508 242.607 566.508 243.3C566.508 244.18 566.155 244.88 565.448 245.4C564.741 245.92 563.801 246.18 562.628 246.18ZM569.659 246.08C569.326 246.08 569.059 245.98 568.859 245.78C568.659 245.567 568.559 245.3 568.559 244.98C568.559 244.66 568.659 244.4 568.859 244.2C569.059 243.987 569.326 243.88 569.659 243.88C569.993 243.88 570.253 243.987 570.439 244.2C570.639 244.4 570.739 244.66 570.739 244.98C570.739 245.3 570.639 245.567 570.439 245.78C570.253 245.98 569.993 246.08 569.659 246.08Z" fill="white"/>
</svg>
