<svg width="30" height="30" viewBox="0 0 30 30" fill="none" xmlns="http://www.w3.org/2000/svg">
<g clip-path="url(#clip0_1_3481)">
<path d="M13.1592 17.2916H11.8889V16.021C11.8889 15.5356 11.4953 15.1421 11.0099 15.1421C10.5244 15.1421 10.1309 15.5356 10.1309 16.021V17.2916H8.86044C8.375 17.2916 7.98145 17.6852 7.98145 18.1706V22.4692C7.98145 22.9546 8.375 23.3482 8.86044 23.3482H10.1309V24.6904C10.1309 25.1758 10.5244 25.5693 11.0099 25.5693C11.4953 25.5693 11.8889 25.1758 11.8889 24.6904V23.3482H13.1592C13.6447 23.3482 14.0382 22.9546 14.0382 22.4692V18.1706C14.0382 17.6852 13.6447 17.2916 13.1592 17.2916Z" fill="#666666"/>
<path d="M21.1399 12.9926H19.8695V11.7221C19.8695 11.2367 19.4759 10.8431 18.9905 10.8431C18.5051 10.8431 18.1115 11.2367 18.1115 11.7221V12.9926H16.8411C16.3557 12.9926 15.9621 13.3861 15.9621 13.8716V18.1702C15.9621 18.6556 16.3557 19.0492 16.8411 19.0492H18.1115V24.6904C18.1115 25.1759 18.5051 25.5694 18.9905 25.5694C19.4759 25.5694 19.8695 25.1759 19.8695 24.6904V19.0492H21.1399C21.6253 19.0492 22.0189 18.6556 22.0189 18.1702V13.8716C22.0189 13.3861 21.6253 12.9926 21.1399 12.9926V12.9926Z" fill="#666666"/>
<path d="M29.121 6.58011H27.8506V5.30956C27.8506 4.82413 27.457 4.43057 26.9716 4.43057C26.4862 4.43057 26.0926 4.82413 26.0926 5.30956V6.58006H24.8222C24.3368 6.58006 23.9432 6.97361 23.9432 7.45905V13.8715C23.9432 14.357 24.3368 14.7505 24.8222 14.7505H26.0926V18.2417C26.0926 18.7272 26.4862 19.1207 26.9716 19.1207C27.457 19.1207 27.8506 18.7272 27.8506 18.2417V14.7505H29.121C29.6065 14.7505 30 14.357 30 13.8715V7.4591C30 6.97367 29.6065 6.58011 29.121 6.58011V6.58011Z" fill="#666666"/>
<path d="M5.17772 10.7717H3.90741V5.30962C3.90741 4.82419 3.51385 4.43063 3.02841 4.43063C2.54298 4.43063 2.14942 4.82419 2.14942 5.30962V10.7717H0.87899C0.393553 10.7717 0 11.1652 0 11.6507V18.2418C0 18.7272 0.393553 19.1208 0.87899 19.1208H2.14942V20.3913C2.14942 20.8767 2.54298 21.2703 3.02841 21.2703C3.51385 21.2703 3.90741 20.8767 3.90741 20.3913V19.1208H5.17778C5.66322 19.1208 6.05677 18.7272 6.05677 18.2418V11.6507C6.05671 11.1652 5.66322 10.7717 5.17772 10.7717V10.7717Z" fill="#666666"/>
</g>
<defs>
<clipPath id="clip0_1_3481">
<rect width="30" height="30" fill="white"/>
</clipPath>
</defs>
</svg>
