<svg width="30" height="30" viewBox="0 0 30 30" fill="none" xmlns="http://www.w3.org/2000/svg">
<g clip-path="url(#clip0_1_3466)">
<path d="M20.7439 1.85284H3.39258C1.52168 1.85284 0 3.37452 0 5.24542V20.4505C0 21.1706 0.814395 21.5766 1.38926 21.1659L6.22148 17.7183C6.62695 17.4294 7.10391 17.2765 7.60195 17.2765H18.2303C20.1012 17.2765 21.6229 15.7548 21.6229 13.8839V2.73175C21.6229 2.24659 21.2291 1.85284 20.7439 1.85284V1.85284ZM16.4748 12.4999H6.31992C5.83477 12.4999 5.44102 12.1068 5.44102 11.621C5.44102 11.1359 5.83477 10.7421 6.31992 10.7421H16.4748C16.96 10.7421 17.3537 11.1359 17.3537 11.621C17.3537 12.1068 16.96 12.4999 16.4748 12.4999ZM16.4748 8.39835H6.31992C5.83477 8.39835 5.44102 8.00519 5.44102 7.51945C5.44102 7.03429 5.83477 6.64054 6.31992 6.64054H16.4748C16.96 6.64054 17.3537 7.03429 17.3537 7.51945C17.3537 8.00519 16.96 8.39835 16.4748 8.39835Z" fill="#666666"/>
<path d="M30 12.0628V27.2673C30 27.9826 29.1897 28.3963 28.6107 27.9827L23.7785 24.5357C23.373 24.2468 22.8961 24.0939 22.398 24.0939H11.7697C9.89882 24.0939 8.37714 22.5716 8.37714 20.7007V19.0343H18.2303C21.0703 19.0343 23.3807 16.7239 23.3807 13.8839V8.66965H26.6074C28.4783 8.66965 30 10.1919 30 12.0628V12.0628Z" fill="#666666"/>
</g>
<defs>
<clipPath id="clip0_1_3466">
<rect width="30" height="30" fill="white"/>
</clipPath>
</defs>
</svg>
