<svg width="30" height="30" viewBox="0 0 30 30" fill="none" xmlns="http://www.w3.org/2000/svg">
<path d="M25.8056 16.9087L25.3125 16.6238C24.7256 16.2853 24.375 15.6778 24.375 15C24.375 14.3222 24.7256 13.7147 25.3125 13.3762L25.8056 13.0912C27.1519 12.3131 27.6122 10.5956 26.835 9.24938L25.8975 7.62562C25.1222 6.28219 23.3981 5.82094 22.0556 6.59625L21.5625 6.88031C20.9756 7.21969 20.2734 7.21969 19.6875 6.88031C19.1006 6.54094 18.75 5.93437 18.75 5.25656V4.6875C18.75 3.13687 17.4881 1.875 15.9375 1.875H14.0625C12.5119 1.875 11.25 3.13687 11.25 4.6875V5.2575C11.25 5.93531 10.8994 6.54188 10.3125 6.88125C9.72564 7.21969 9.02439 7.22063 8.43751 6.88125L7.94439 6.59625C6.60189 5.82094 4.87783 6.28219 4.10158 7.62562L3.16408 9.24938C2.38689 10.5956 2.8472 12.3141 4.19345 13.0912L4.68751 13.3762C5.27439 13.7147 5.62501 14.3222 5.62501 15C5.62501 15.6778 5.27439 16.2853 4.68751 16.6238L4.19439 16.9087C2.84814 17.6859 2.38783 19.4044 3.16501 20.7506L4.10251 22.3744C4.87876 23.7178 6.60283 24.1791 7.94439 23.4038L8.43751 23.1197C9.02439 22.7794 9.72564 22.7812 10.3125 23.1197C10.8994 23.4591 11.25 24.0656 11.25 24.7434V25.3125C11.25 26.8631 12.5119 28.125 14.0625 28.125H15.9375C17.4881 28.125 18.75 26.8631 18.75 25.3125V24.7425C18.75 24.0647 19.1006 23.4581 19.6875 23.1187C20.2734 22.7803 20.9756 22.7794 21.5625 23.1187L22.0556 23.4038C23.3981 24.1781 25.1222 23.7169 25.8975 22.3744L26.835 20.7506C27.6122 19.4044 27.1519 17.6859 25.8056 16.9087V16.9087ZM15 19.6875C12.4153 19.6875 10.3125 17.5847 10.3125 15C10.3125 12.4153 12.4153 10.3125 15 10.3125C17.5847 10.3125 19.6875 12.4153 19.6875 15C19.6875 17.5847 17.5847 19.6875 15 19.6875Z" fill="#666666"/>
</svg>
