<svg width="30" height="30" viewBox="0 0 30 30" fill="none" xmlns="http://www.w3.org/2000/svg">
<path d="M21.9231 10.6731H30V6.92309C30 4.53721 28.059 2.59618 25.6731 2.59618H4.32691C1.94104 2.59618 0 4.53721 0 6.92309V23.0769C0 25.4628 1.94104 27.4038 4.32691 27.4038H25.6731C28.059 27.4038 30 25.4628 30 23.0769V19.3269H21.9231C19.5372 19.3269 17.5962 17.3859 17.5962 15C17.5962 12.6141 19.5372 10.6731 21.9231 10.6731Z" fill="#666666"/>
<path d="M21.9231 12.4038C20.4916 12.4038 19.3269 13.5684 19.3269 15C19.3269 16.4316 20.4915 17.5962 21.9231 17.5962H30V12.4039H21.9231V12.4038ZM23.0769 15.8654H21.9231C21.4451 15.8654 21.0577 15.4779 21.0577 15C21.0577 14.5221 21.4452 14.1346 21.9231 14.1346H23.0769C23.5549 14.1346 23.9423 14.5221 23.9423 15C23.9423 15.4779 23.5549 15.8654 23.0769 15.8654Z" fill="#666666"/>
</svg>
